<svg xmlns="http://www.w3.org/2000/svg" xmlns:xlink="http://www.w3.org/1999/xlink" version="1.0" x="0" y="0" width="2400" height="1558.3090275464433" viewBox="79.94420669555664 66.52718399047852 180.11160186767577 116.9456396484375" preserveAspectRatio="xMidYMid meet" color-interpolation-filters="sRGB"><g><defs><linearGradient id="92" x1="0%" y1="0%" x2="100%" y2="0%"><stop offset="0%" stop-color="#fa71cd"></stop> <stop offset="100%" stop-color="#9b59b6"></stop></linearGradient><linearGradient id="93" x1="0%" y1="0%" x2="100%" y2="0%"><stop offset="0%" stop-color="#f9d423"></stop> <stop offset="100%" stop-color="#f83600"></stop></linearGradient><linearGradient id="94" x1="0%" y1="0%" x2="100%" y2="0%"><stop offset="0%" stop-color="#0064d2"></stop> <stop offset="100%" stop-color="#1cb0f6"></stop></linearGradient><linearGradient id="95" x1="0%" y1="0%" x2="100%" y2="0%"><stop offset="0%" stop-color="#f00978"></stop> <stop offset="100%" stop-color="#3f51b1"></stop></linearGradient><linearGradient id="96" x1="0%" y1="0%" x2="100%" y2="0%"><stop offset="0%" stop-color="#7873f5"></stop> <stop offset="100%" stop-color="#ec77ab"></stop></linearGradient><linearGradient id="97" x1="0%" y1="0%" x2="100%" y2="0%"><stop offset="0%" stop-color="#f9d423"></stop> <stop offset="100%" stop-color="#e14fad"></stop></linearGradient><linearGradient id="98" x1="0%" y1="0%" x2="100%" y2="0%"><stop offset="0%" stop-color="#009efd"></stop> <stop offset="100%" stop-color="#2af598"></stop></linearGradient><linearGradient id="99" x1="0%" y1="0%" x2="100%" y2="0%"><stop offset="0%" stop-color="#ffcc00"></stop> <stop offset="100%" stop-color="#00b140"></stop></linearGradient><linearGradient id="100" x1="0%" y1="0%" x2="100%" y2="0%"><stop offset="0%" stop-color="#d51007"></stop> <stop offset="100%" stop-color="#ff8177"></stop></linearGradient><linearGradient id="102" x1="0%" y1="0%" x2="100%" y2="0%"><stop offset="0%" stop-color="#a2b6df"></stop> <stop offset="100%" stop-color="#0c3483"></stop></linearGradient><linearGradient id="103" x1="0%" y1="0%" x2="100%" y2="0%"><stop offset="0%" stop-color="#7ac5d8"></stop> <stop offset="100%" stop-color="#eea2a2"></stop></linearGradient><linearGradient id="104" x1="0%" y1="0%" x2="100%" y2="0%"><stop offset="0%" stop-color="#00ecbc"></stop> <stop offset="100%" stop-color="#007adf"></stop></linearGradient><linearGradient id="105" x1="0%" y1="0%" x2="100%" y2="0%"><stop offset="0%" stop-color="#b88746"></stop> <stop offset="100%" stop-color="#fdf5a6"></stop></linearGradient></defs><g class="iconmbgsvg" transform="translate(81.70999920368195,68.2929801940918)"><g fill="#fff" hollow-target="text"><g transform="translate(21.290000915527344,0)" mask="url(#ed5dadc4-a1c9-4f42-b662-9c7c904117a7)"><g><rect fill="#fff" fill-opacity="0" stroke-width="2" x="0" y="0" width="120" height="113.41404632963793" class="image-rect"></rect> <svg filter="url(#colors2836627604)" x="0" y="0" width="120" height="113.41404632963793" filtersec="colorsf8539731965" class="image-svg-svg primary" style="overflow: visible;"><svg xmlns="http://www.w3.org/2000/svg" viewBox="0.7709989547729492 0.2125091552734375 211.613525390625 200.00039672851562"><path d="M11.53 14.574c-25.644 28.501-3.877 89.947 48.616 137.244s115.836 62.534 141.48 34.033c9.661-10.739 12.593-26.153 9.687-43.726-.33 7.704-2.605 14.513-7.024 19.974-19.426 24.009-72.934 12.877-119.513-24.865-46.578-37.742-68.589-87.802-49.162-111.81C51.2 6.16 88.724 9.517 127.006 31.09c4.656 6.559 4.318 11.26 3.471 15.547l-.094.464c-.063.308-.129.614-.194.92l-.147.684-.092.438c-.198.947-.377 1.888-.483 2.84 7.876-6.566 18.03-5.732 30.459 2.503l.44.293c-11.894-9.641-15.862-19.283-11.904-28.924-.81.352-1.594.76-2.377 1.188l-.39.216-.589.328-.59.33-.398.22c-.398.22-.801.436-1.213.646l-.413.208c-3.208 1.579-6.943 2.675-12.613 1.267C83.109-2.162 33.493-9.836 11.53 14.574z" fill="#333" fill-rule="evenodd" opacity=".989"></path></svg></svg> <defs><filter id="colors2836627604"><feColorMatrix type="matrix" values="0 0 0 0 0.99609375  0 0 0 0 0.99609375  0 0 0 0 0.99609375  0 0 0 1 0" class="icon-feColorMatrix "></feColorMatrix></filter> <filter id="colorsf8539731965"><feColorMatrix type="matrix" values="0 0 0 0 0.99609375  0 0 0 0 0.99609375  0 0 0 0 0.99609375  0 0 0 1 0" class="icon-fecolormatrix"></feColorMatrix></filter> <filter id="colorsb4612305034"><feColorMatrix type="matrix" values="0 0 0 0 0  0 0 0 0 0  0 0 0 0 0  0 0 0 1 0" class="icon-fecolormatrix"></feColorMatrix></filter></defs></g></g> <g transform="translate(0,29.54851722717285)"><g fill-rule="" class="tp-name" transform="translate(0,0)"><g transform="scale(1)"><g><path d="M42.25-13.95L42.25-13.95Q42.39-13.68 43.24-12.38L43.24-12.38Q43.83-11.56 44.12-11.07 44.41-10.57 44.41-10.21L44.41-10.21Q44.41-9.76 43.92-9.63L43.92-9.63Q43.6-9.49 43.16-9.49L43.16-9.49Q42.48-9.49 41.49-9.76 40.5-10.04 40.14-10.13L40.14-10.13Q38.56-10.48 36.05-10.48L36.05-10.48Q34.24-10.48 31.36-10.3L31.36-10.3 29.97-10.21Q30.02-7.74 30.29-6.17 30.55-4.59 30.82-3.89 31.09-3.19 31.23-3.15L31.23-3.15Q31.23-3.15 31.95-3.87L31.95-3.87Q33.3-5.22 34.06-6.14 34.83-7.06 34.83-7.74L34.83-7.74Q35.01-7.92 35.55-7.92L35.55-7.92Q36.67-7.92 38.12-7.25 39.55-6.57 39.55-5.89L39.55-5.89Q37.89-4.41 37.17-3.65L37.17-3.65Q35.87-2.34 33.7-0.72L33.7-0.72Q36.85 2.7 37.53 2.61L37.53 2.61Q38.2 1.8 38.81 0.85 39.42-0.09 40.73-2.48L40.73-2.48Q41.58 1.44 42.48 5.63L42.48 5.63 42.7 6.66Q40.81 7.47 38.97 7.47L38.97 7.47Q36.23 7.47 34.16 6.1 32.09 4.72 29.83 2.48L29.83 2.48 29.07 1.71Q28.98 2.11 27.52 2.92 26.05 3.73 24.37 4.32 22.68 4.91 21.78 4.81L21.78 4.81Q22.23 4.37 24.34 2.65L24.34 2.65Q26.05 1.3 26.95 0.47 27.86-0.36 27.9-0.9L27.9-0.9Q27.18-1.8 26.68-3.98 26.19-6.17 25.92-8.32L25.92-8.32Q25.74-8.78 25.74-9.9L25.74-9.9Q23.94-10.13 21.33-10.13L21.33-10.13Q18.99-10.13 18.4-9.9L18.4-9.9Q18.45-9.67 19.51-9.31 20.56-8.96 21.78-8.59L21.78-8.59 23.85-7.96Q24.39-7.06 24.39-6.12L24.39-6.12Q24.39-4.86 23.45-3.73L23.45-3.73 20.02-6.39Q19.53-6.84 18.97-7.22 18.4-7.6 17.23-8.32L17.23-8.32 17.23-7.47Q17.32-7.15 17.41-6.5 17.5-5.85 17.5-5.26L17.5-5.26Q17.5-4.72 17.46-4.54L17.46-4.54 14.13-4.54 14.13-5.44Q14.13-6.17 13.95-6.52L13.95-6.52Q12.51-5.54 10.91-5.08 9.31-4.63 6.71-4.23L6.71-4.23Q6.39-4.14 5.42-3.85 4.46-3.55 3.87-3.55L3.87-3.55Q3.6-3.55 3.51-3.6L3.51-3.6Q4.46-4.41 7.47-6.08L7.47-6.08Q9.45-7.25 10.37-7.83 11.29-8.41 11.79-8.96L11.79-8.96Q10.44-8.73 8.1-8.37 5.76-8.01 4.72-7.88L4.72-7.88Q3.87-8.14 2.88-9.25 1.89-10.35 1.62-11.21L1.62-11.21Q1.75-11.25 2.11-11.25L2.11-11.25 3.24-11.21 5.08-11.07Q5.31-11.03 6.21-11.03L6.21-11.03Q8.14-11.03 10.96-11.32 13.77-11.61 13.95-11.83L13.95-11.83Q14.22-12.2 14.22-12.73L14.22-12.73Q14.22-13.23 13.95-13.5L13.95-13.5Q13.28-13.23 11.43-12.94 9.58-12.64 7.96-12.64L7.96-12.64Q6.21-12.64 5.35-13.09L5.35-13.09Q6.25-13.5 8.05-13.9L8.05-13.9Q8.46-14.04 9.31-14.26 10.17-14.49 10.84-14.76L10.84-14.76Q11.61-15.07 13.99-16.2L13.99-16.2Q16.34-17.37 18-18L18-18 4.46-16.7Q4-16.61 3.82-16.61L3.82-16.61Q2.7-16.61 2.36-17.53 2.02-18.45 1.89-20.2L1.89-20.2Q1.98-20.2 3.55-20.07L3.55-20.07Q5-19.98 5.8-19.84L5.8-19.84Q6.57-19.66 7.69-19.66L7.69-19.66Q8.64-19.66 10.66-19.89L10.66-19.89Q12.42-20.11 14.71-20.32 17.01-20.52 17.95-20.61L17.95-20.61 20.16-20.79 20.16-22.23Q17.91-22.09 15.25-21.55L15.25-21.55 13.18-21.55Q12.69-21.38 11.77-21.22 10.84-21.06 10.17-21.06L10.17-21.06Q9.81-21.06 9.45-21.15L9.45-21.15Q8.64-21.33 7.85-22.45 7.06-23.58 7.06-24.39L7.06-24.39Q7.96-23.8 9.95-23.8L9.95-23.8Q12.87-23.8 16.92-24.75L16.92-24.75Q17.37-24.88 18.36-24.88L18.36-24.88Q18.5-24.88 19.08-24.93 19.66-24.97 20.02-25.15L20.02-25.15Q20.16-25.38 20.16-25.92L20.16-25.92 17.28-25.96Q15.03-25.96 13.63-25.65L13.63-25.65Q13.37-25.56 12.01-25.18 10.66-24.79 9.58-24.79L9.58-24.79Q9.27-24.79 8.91-24.88L8.91-24.88Q7.96-25.06 7.04-26.14 6.12-27.22 5.44-28.44L5.44-28.44 5.94-28.44Q6.39-28.08 7.38-27.9 8.37-27.72 9.54-27.72L9.54-27.72Q10.53-27.72 11.25-27.86L11.25-27.86Q11.97-27.95 12.46-27.95L12.46-27.95Q12.69-27.95 13.46-27.95 14.22-27.95 14.85-28.04L14.85-28.04Q15.97-28.26 17.01-28.3L17.01-28.3 15.16-29.83Q13.23-31.41 12.35-32.2 11.47-32.98 11.52-33.3L11.52-33.3Q13.81-33.34 15.52-33.07 17.23-32.8 18.68-32.13L18.68-32.13Q18.86-31.14 18.86-30.51L18.86-30.51Q18.86-28.93 18.09-28.39L18.09-28.39Q19.8-28.53 23.49-28.53L23.49-28.53Q23.8-29.11 24.37-29.61 24.93-30.11 25.88-30.78L25.88-30.78Q27.13-31.63 27.88-32.38 28.62-33.12 28.84-34.16L28.84-34.16Q28.8-34.2 28.71-34.34 28.62-34.47 28.62-34.54 28.62-34.6 28.66-34.74L28.66-34.74Q28.84-35.1 29.47-35.1L29.47-35.1Q30.15-35.1 31.09-34.6 32.04-34.11 32.74-33.41 33.44-32.71 33.48-32.09L33.48-32.09Q31.59-30.96 30.22-30.4 28.84-29.83 26.95-29.25L26.95-29.25 25.74-28.84 31.23-29.16 32.49-29.43Q34.06-29.79 35.26-29.97 36.45-30.15 37.93-30.15L37.93-30.15Q38.02-29.97 38.74-29.29L38.74-29.29Q39.46-28.53 39.78-27.99 40.09-27.45 40.14-26.46L40.14-26.46Q40-26.37 39.82-26.19 39.64-26.01 39.44-25.94 39.24-25.88 38.84-25.88L38.84-25.88Q38.02-26.37 34.74-26.37L34.74-26.37Q33.3-26.37 30.78-26.28L30.78-26.28 28.44-26.19 26.59-26.23Q25.43-26.23 25.11-25.88L25.11-25.88Q25.06-25.79 24.93-25.15L24.93-25.15Q25.88-25.2 26.68-25.29 27.49-25.38 28.13-25.43L28.13-25.43Q30.55-25.74 32.17-25.74L32.17-25.74Q33.25-25.74 33.93-25.56L33.93-25.56Q34.02-25.29 34.42-24.7L34.42-24.7Q34.74-24.16 34.9-23.83 35.05-23.49 35.1-22.95L35.1-22.95Q34.56-22.5 34.29-22.36 34.02-22.23 33.21-22.23L33.21-22.23Q32.58-22.63 30.24-22.63L30.24-22.63Q28.75-22.63 26.32-22.45L26.32-22.45Q25.06-22.36 24.66-22.36L24.66-22.36Q24.66-22.18 24.59-21.87 24.52-21.55 24.52-21.2L24.52-21.2Q30.51-21.55 42.25-22L42.25-22Q42.48-21.73 43.02-21.13 43.56-20.52 43.85-19.89 44.14-19.26 44.14-18.5L44.14-18.5Q43.65-18.04 43.36-17.93 43.06-17.82 42.12-17.86L42.12-17.86Q42.03-17.82 41.53-17.82L41.53-17.82Q40.32-17.82 35.87-18.31L35.87-18.31Q35.41-18.45 34.42-18.45L34.42-18.45Q33.88-18.45 32.8-18.36L32.8-18.36Q31.32-18.27 30.69-18.31L30.69-18.31Q28.08-18.59 25.29-18.59L25.29-18.59Q23.8-18.59 22.72-18.45L22.72-18.45Q22.45-18.4 21.91-18.4L21.91-18.4 20.11-18.45Q19.13-18.45 18.77-18.18L18.77-18.18Q19.13-17.59 20.25-16.79L20.25-16.79Q20.84-16.34 21.08-16.06 21.33-15.79 21.33-15.39L21.33-15.39Q21.33-15.07 21.06-14.58L21.06-14.58Q19.3-13.72 17.37-13.63L17.37-13.63 17.37-12.24Q21.64-12.55 25.24-12.6L25.24-12.6Q25.38-13.28 25.38-13.72L25.38-13.72Q25.38-14.17 25.29-14.89L25.29-14.89Q25.15-15.52 25.15-16.25L25.15-16.25Q25.15-17.01 25.24-17.5L25.24-17.5Q25.96-17.82 26.82-17.82L26.82-17.82Q27.27-17.46 28.71-17.19L28.71-17.19Q29.92-17.01 30.51-16.65L30.51-16.65Q30.6-16.52 30.69-16.25L30.69-16.25Q30.69-16.11 30.42-15.3L30.42-15.3Q29.88-13.9 29.88-13L29.88-13Q30.91-12.73 32.71-12.73L32.71-12.73Q33.7-12.73 34.45-12.85 35.19-12.96 35.37-13.14L35.37-13.14Q34.78-13.37 33.46-15.14 32.13-16.92 31.99-17.68L31.99-17.68Q32.09-17.73 32.22-17.82 32.35-17.91 32.67-17.95L32.67-17.95Q33.34-17.55 34.78-17.46L34.78-17.46Q35.91-17.32 36.49-17.12 37.08-16.92 37.3-16.25L37.3-16.25Q37.66-15.84 37.66-15.25L37.66-15.25Q37.66-14.63 37.24-13.93 36.81-13.23 36.67-13L36.67-13 37.8-13Q39.06-13.95 42.25-13.95L42.25-13.95ZM30.69-32.89L30.69-32.89Q30.73-32.71 30.76-32.67 30.78-32.63 30.91-32.53L30.91-32.53 30.91-32.89 30.69-32.89ZM40.86-12.2L40.86-12.2Q40.63-12.42 40.63-12.42L40.63-12.42 40.63-12.01 40.86-12.01 40.86-12.2ZM21.87 0.14L21.87 0.14Q22.09 0.49 22.09 0.85L22.09 0.85Q22.09 1.08 22.03 1.35 21.96 1.62 21.91 2.02L21.91 2.02Q21.82 3.69 21.08 4.79 20.34 5.89 19.51 6.71 18.68 7.51 18.4 7.74L18.4 7.74Q17.05 7.88 16.92 7.88L16.92 7.88Q16.38 7.88 16.2 7.74L16.2 7.74Q15.88 7.6 14.71 6.57 13.54 5.54 12.96 4.91L12.96 4.91 14.67 4.95Q15.79 4.95 16.52 4.72L16.52 4.72Q17.1 3.87 17.82 2.02L17.82 2.02Q17.14 2.11 16.63 2.11 16.11 2.11 15.75 2.16L15.75 2.16Q14.58 2.16 14.17 2.29L14.17 2.29Q13.68 2.43 13.14 2.88L13.14 2.88Q12.78 3.19 12.49 3.33 12.2 3.46 11.7 3.51L11.7 3.51Q11.34 3.24 10.84 2.92 10.35 2.61 10.04 2.29L10.04 2.29Q10.13 2.02 10.53-0.22L10.53-0.22Q10.21-0.18 9.86-0.02 9.49 0.14 9.36 0.18L9.36 0.18Q8.37 0.54 7.83 0.58L7.83 0.58 6.97-0.09Q6.08-0.77 5.65-1.3 5.22-1.84 5.13-2.7L5.13-2.7Q5.44-2.65 6.34-2.61 7.25-2.56 8.23-2.56L8.23-2.56Q9.09-2.56 9.27-2.61L9.27-2.61Q10.39-2.88 13.77-3.38L13.77-3.38Q19.13-4.09 19.98-4.54L19.98-4.54Q22.68-3.46 22.68-2.21L22.68-2.21Q22.68-1.84 22.45-1.4L22.45-1.4 21.2-1.4Q21.02-1.48 20.29-1.48L20.29-1.48Q19.04-1.48 17.03-1.3 15.03-1.13 14.45-0.94L14.45-0.94 14.35 0.04 14.63 0.04Q14.94 0.22 15.52 0.22L15.52 0.22Q16.16 0.22 17.03 0 17.91-0.22 18.68-0.49L18.68-0.49Q19.89-0.9 20.25-0.94L20.25-0.94Q20.47-0.81 21.08-0.54 21.69-0.27 21.87 0.14L21.87 0.14ZM19.71 1.57L19.71 1.57Q19.71 1.67 19.64 1.89 19.57 2.11 19.57 2.29L19.57 2.29 19.89 2.29 19.89 1.93 20.11 1.57 19.71 1.57ZM33.21 1.8L33.21 1.8Q33.39 2.25 33.62 2.41 33.84 2.56 34.34 2.61L34.34 2.61 34.34 2.38Q34.2 2.29 34.02 2.14 33.84 1.98 33.62 1.93L33.62 1.93 33.21 1.8ZM79.52-25.79L79.52-25.79Q80.28-24.84 81.63-24.1 82.98-23.36 85.41-22.32L85.41-22.32Q87.75-21.38 88.83-20.7L88.83-20.7Q88.74-20.7 87.61-19.37 86.49-18.04 86.31-17.73L86.31-17.73Q86.04-17.59 85.68-17.59L85.68-17.59Q84.33-17.59 82.44-19.35 80.55-21.11 79.52-23.31L79.52-23.31 79.52-20.38Q79.6-20.25 79.6-19.71L79.6-19.71Q79.6-19.13 79.56-18.81L79.56-18.81 79.52-17.91Q78.97-17.5 78.19-17.17 77.4-16.83 76.59-16.7L76.59-16.7Q75.73-17.86 75.56-18.31 75.38-18.77 75.38-19.8L75.38-19.8 75.42-21.91Q73.31-19.84 71.33-18.7 69.34-17.55 67.19-17.59L67.19-17.59 67.77-18Q68.49-18.4 69.82-19.93 71.14-21.46 72.29-23.15 73.44-24.84 73.66-25.61L73.66-25.61Q72.86-25.65 71.28-25.2L71.28-25.2Q70.88-25.11 70.42-24.84L70.42-24.84Q70.16-24.7 69.84-24.59 69.53-24.48 69.03-24.48L69.03-24.48Q68.94-24.66 68.22-25.74L68.22-25.74Q67.23-27.09 66.91-28.04L66.91-28.04 67.23-28.04Q67.68-27.72 68.72-27.72L68.72-27.72Q70.06-27.72 72.77-28.26L72.77-28.26Q74.43-28.57 75.24-28.62L75.24-28.62 75.24-31.81Q75.02-31.95 74.66-31.95L74.66-31.95 74.43-31.95Q74.2-31.95 74.07-32.11 73.94-32.27 73.84-32.8L73.84-32.8Q74.47-33.21 75.73-33.66 77-34.11 78.07-34.11L78.07-34.11Q79.69-34.11 80.1-33.03L80.1-33.03Q80.41-32.27 80.41-31.68L80.41-31.68Q80.41-31.05 80.19-30.46L80.19-30.46Q80.01-29.83 80.01-29.43L80.01-29.43Q80.73-29.47 81.9-29.79L81.9-29.79Q82.13-29.83 82.96-30.02 83.79-30.2 84.38-30.2L84.38-30.2Q84.96-30.2 85.19-30.02L85.19-30.02Q85.86-29.83 86.4-29.02 86.94-28.21 87.07-27.27L87.07-27.27Q86.89-27.13 86.72-26.82 86.53-26.5 86.22-26.41L86.22-26.41Q85.91-26.28 83.03-26.19L83.03-26.19Q80.19-26.1 79.52-25.96L79.52-25.96 79.52-25.79ZM45.9-13.09L45.9-13.09Q47.07-13.72 48.83-15.71 50.58-17.68 52.16-20 53.73-22.32 54.31-23.89L54.31-23.89Q53.87-23.8 53.14-23.71L53.14-23.71Q52.97-23.71 52.27-23.63 51.57-23.54 50.49-23.18L50.49-23.18Q50.13-23.63 49.37-24.25L49.37-24.25Q48.51-24.97 48.08-25.49 47.66-26.01 47.7-26.68L47.7-26.68 48.51-26.73Q48.55-26.68 48.62-26.59 48.69-26.5 48.83-26.48 48.96-26.46 49.19-26.46L49.19-26.46Q49.55-26.46 52.52-26.73L52.52-26.73Q52.78-26.73 56.52-27.04L56.52-27.04 57.02-27.58Q56.92-27.9 56.92-28.71L56.92-28.71 56.92-29.88Q56.92-30.73 56.79-31.05L56.79-31.05Q56.66-31.77 56.41-32.06 56.16-32.35 56.12-32.4L56.12-32.4Q55.84-32.67 55.78-32.87 55.71-33.07 55.8-33.57L55.8-33.57Q56.07-33.52 56.34-33.52 56.61-33.52 56.92-33.48L56.92-33.48Q58.68-33.39 59.83-33.21 60.98-33.03 61.25-32.63L61.25-32.63Q61.52-32.35 61.52-31.5L61.52-31.5Q61.52-30.82 61.38-29.92L61.38-29.92Q61.34-29.61 61.29-29.14 61.25-28.66 61.25-28.13L61.25-28.13 61.42-28.04Q62.77-28.57 65.07-28.66L65.07-28.66Q65.2-28.53 65.75-28.1 66.28-27.68 66.64-27.18 67-26.68 67-26.28L67-26.28Q67-25.7 66.33-25.33L66.33-25.33Q65.92-25.02 64.13-25.02L64.13-25.02Q63.18-25.02 62.73-25.06L62.73-25.06Q62.41-25.06 62.03-25.09 61.65-25.11 61.25-25.06L61.25-25.06 61.25-24.97Q61.25-24.61 61.56-24.03L61.56-24.03Q61.92-23.67 62.57-23.42 63.22-23.18 64.35-22.86L64.35-22.86Q65.66-22.5 66.42-22.16 67.19-21.82 67.41-21.24L67.41-21.24Q67.19-20.97 66.96-20.02L66.96-20.02Q66.69-18.95 66.44-18.47 66.19-18 65.7-18.13L65.7-18.13Q64.98-18.36 62.91-20.25L62.91-20.25Q62.73-20.38 62.03-20.97 61.34-21.55 61.06-21.64L61.06-21.64Q60.98-21.29 60.98-20.79L60.98-20.79Q60.98-20.07 61.09-19.1 61.2-18.13 61.2-17.91L61.2-17.91Q61.06-17.59 61.06-17.01L61.06-17.01 61.11-15.93Q61.11-15.12 60.52-14.76L60.52-14.76Q59.67-14.49 58.73-14.04L58.73-14.04Q58-13.68 57.73-13.68L57.73-13.68Q57.47-13.68 57.33-13.99L57.33-13.99Q57.02-14.58 57.02-16.16L57.02-16.16Q57.02-17.05 57.11-18.68L57.11-18.68Q57.2-19.44 57.2-20.56L57.2-20.56Q56.07-18.81 53.84-17.08 51.62-15.34 49.34-14.24 47.07-13.14 45.9-13.09L45.9-13.09ZM58.45-31.18L58.45-31.18Q58.27-30.96 58.37-30.46L58.37-30.46Q58.37-30.42 58.41-30.38 58.45-30.33 58.5-30.33L58.5-30.33Q58.68-30.33 58.95-30.51L58.95-30.51 58.91-31.32 58.45-31.18ZM77.4-15.34L77.4-15.34Q78.34-15.48 79.67-14.83 81-14.17 81.99-13.18 82.98-12.2 83.03-11.43L83.03-11.43Q79.47-6.52 77.09-3.78 74.7-1.03 71.37 1.35 68.04 3.73 63.36 5.26L63.36 5.26Q60.57 6.17 56.79 6.82 53.01 7.47 50.09 7.42L50.09 7.42Q50.67 7.11 52.22 6.37 53.77 5.63 55.62 4.72L55.62 4.72Q61.11 2.11 60.98 2.11L60.98 2.11Q63.77 0.58 65.11-0.32L65.11-0.32 63.9-1.93Q61.29-5.35 60.57-6.08L60.57-6.08Q61.38-6.21 62.1-6.21L62.1-6.21Q63.36-6.21 64.51-5.83 65.66-5.44 67.63-4.5L67.63-4.5Q68-4.18 68.47-3.87 68.94-3.55 69.12-3.28L69.12-3.28Q70.65-4.63 71.46-5.44L71.46-5.44Q72.13-6.03 72.7-7.04 73.26-8.05 73.94-9.54L73.94-9.54Q74.16-10.08 74.34-10.46 74.52-10.84 74.66-11.12L74.66-11.12Q73.03-10.62 71.1-10.24 69.16-9.86 68.13-9.86L68.13-9.86Q67.63-9.86 66.91-10.21L66.91-10.21Q66.28-10.57 65.66-10.62L65.66-10.62Q64.62-9.81 63.67-9.29 62.73-8.78 61.85-8.41 60.98-8.05 60.62-7.88L60.62-7.88Q59.17-6.52 55.87-5.58 52.56-4.63 49.68-4.54L49.68-4.54Q54.45-7.25 58.23-10.57 62.01-13.9 63.31-17.23L63.31-17.23Q63.45-17.5 63.86-17.5L63.86-17.5Q64.53-17.5 65.86-16.65 67.19-15.79 68.67-14.45L68.67-14.45 68.67-14.31Q68.67-14.17 68.74-13.97 68.81-13.77 68.72-13.59L68.72-13.59 74.47-13.99Q75.02-14.13 75.38-14.35 75.73-14.58 75.83-14.63L75.83-14.63Q76.55-15.16 77.4-15.34L77.4-15.34ZM131.4-12.91L131.4-12.91Q131.53-12.55 132.3-11.43L132.3-11.43Q133.51-9.76 133.83-8.78L133.83-8.78Q133.78-8.23 133.54-8.05 133.29-7.88 132.8-7.88L132.8-7.88Q131.85-7.88 130.14-8.1L130.14-8.1Q129.33-8.19 129.06-8.19L129.06-8.19Q128.56-8.19 128.2-7.92L128.2-7.92Q127.84-7.33 127.84-4.72L127.84-4.72Q127.84-2.61 127.98-0.45L127.98-0.45Q128.07 2.07 128.07 2.92L128.07 2.92Q128.07 3.73 127.98 4.37L127.98 4.37Q127.71 5.4 127.22 6.48 126.72 7.56 126.27 7.29L126.27 7.29Q125.73 7.11 125.08 6.41 124.42 5.71 123.25 4.32L123.25 4.32Q123.03 4 122.83 3.8 122.63 3.6 122.53 3.46L122.53 3.46Q122.67 1.98 123.03-0.9L123.03-0.9Q123.57-4.86 123.7-6.97L123.7-6.97Q122.44-6.88 121.19-6.59 119.92-6.3 118.17-5.76L118.17-5.76Q116.1-5.17 114.8-4.88 113.49-4.59 112.09-4.54L112.09-4.54Q111.11-5.58 110.81-6.01 110.52-6.43 110.25-7.2L110.25-7.2Q109.98-8.01 109.58-8.87L109.58-8.87Q109.62-8.82 110.07-8.82L110.07-8.82Q112.14-8.82 117.45-9.63 122.76-10.44 123.97-11.12L123.97-11.12Q123.57-19.04 123.57-23.04L123.57-23.04Q123.57-27.09 123.84-28.89L123.84-28.89 123.53-30.11Q122.44-34.38 122.13-34.7L122.13-34.7Q122.31-34.88 122.63-34.88L122.63-34.88Q122.85-34.88 123.64-34.58 124.42-34.29 125.1-34.29L125.1-34.29Q125.5-34.16 126.72-33.93L126.72-33.93Q127.84-33.7 128.27-33.48 128.7-33.25 128.88-32.71 129.06-32.17 129.01-30.87L129.01-30.87Q128.84-30.64 128.43-22.95 128.03-15.25 128.03-11.92L128.03-11.92 131.4-12.91ZM109.98-12.55L109.98-12.55Q110.16-12.38 109.82-11.29 109.48-10.21 108.9-9.31 108.31-8.41 107.73-8.41L107.73-8.41Q107.59-8.41 107.37-8.55L107.37-8.55Q107.14-9.13 105.66-12.06 104.17-14.98 104.04-14.94L104.04-14.94Q103.91-13.28 104.36-4.91L104.36-4.91Q104.63 1.93 104.58 2.48L104.58 2.48Q104.58 4.27 104.08 5 103.59 5.71 102.96 6.05 102.33 6.39 102.24 6.57L102.24 6.57Q101.07 5.35 100.64 3.96 100.22 2.56 100.22 0.63L100.22 0.63Q100.22-0.04 100.31-1.93L100.31-1.93Q100.44-3.51 100.44-5.26L100.44-5.26Q100.44-6.57 100.31-8.05L100.31-8.05Q99.63-6.79 97.74-4.48 95.85-2.16 94-0.34 92.16 1.48 91.53 1.53L91.53 1.53Q92.79-0.27 94.52-3.8 96.25-7.33 97.58-10.87 98.91-14.4 99.18-16.16L99.18-16.16Q98.95-15.97 98.62-15.88 98.28-15.79 97.88-15.75L97.88-15.75Q96.3-15.48 95.81-15.34L95.81-15.34Q95.22-16.06 94.81-16.54 94.41-17.01 94.14-17.32L94.14-17.32Q93.47-18 93.35-18.31 93.24-18.63 93.19-19.71L93.19-19.71Q94.09-19.35 95.4-19.35L95.4-19.35Q96.75-19.35 98.14-19.73 99.54-20.11 100.39-20.61L100.39-20.61 100.39-27.9Q98.19-27.49 96.39-27.49L96.39-27.49Q95.31-27.49 94.66-27.61 94-27.72 94.09-27.9L94.09-27.9Q96.48-28.53 104.44-32.89L104.44-32.89Q104.94-33.12 105.7-33.98L105.7-33.98Q106.16-34.52 106.47-34.7L106.47-34.7Q106.97-34.78 107.59-34.11 108.22-33.44 108.65-32.35 109.08-31.27 109.08-30.33L109.08-30.33Q109.08-29.92 109.03-29.74L109.03-29.74Q108.41-29.11 107.66-28.84 106.92-28.57 106.22-28.44 105.53-28.3 105.3-28.26L105.3-28.26Q105.25-27.36 105.14-26.44 105.03-25.52 104.94-24.75L104.94-24.75Q104.58-22.09 104.53-21.15L104.53-21.15Q105.12-21.29 105.8-21.82L105.8-21.82Q106.61-22.36 107.01-22.36L107.01-22.36Q107.14-22.36 107.41-22.27L107.41-22.27Q108.27-22.05 108.94-20.99 109.62-19.93 109.58-18.63L109.58-18.63Q109.39-18.5 107.73-18.4L107.73-18.4Q106.29-18.31 105.53-18.2 104.76-18.09 104.53-17.77L104.53-17.77 104.36-17.41Q104.36-17.41 104.38-17.32 104.4-17.23 104.4-16.83L104.4-16.83Q106.29-15.93 107.91-14.69 109.53-13.46 109.98-12.55L109.98-12.55ZM119.03-21.2L119.03-21.2Q118.48-21.73 117.9-22.23 117.31-22.72 116.82-23.18L116.82-23.18Q114.03-25.65 112.63-27 111.24-28.35 111.33-28.75L111.33-28.75Q113.85-28.62 116.91-27.95 119.97-27.27 120.42-26.28L120.42-26.28Q120.83-25.43 120.83-23.45L120.83-23.45Q120.83-22.27 120.64-21.46L120.64-21.46Q120.33-21.33 119.99-21.26 119.66-21.2 119.03-21.2L119.03-21.2ZM117.99-11.21L117.99-11.21Q117.94-11.52 117.16-12.38 116.37-13.23 115.38-14.22L115.38-14.22Q113.53-16.02 112.39-17.28 111.24-18.54 110.75-19.66L110.75-19.66Q111.78-19.66 114.95-18.95 118.13-18.22 118.48-17.77L118.48-17.77Q118.94-17.19 119.23-16.11 119.52-15.03 119.52-13.95L119.52-13.95Q119.52-12.73 119.14-11.97 118.75-11.21 117.99-11.21L117.99-11.21ZM96.34-17.46L96.34-17.46Q96.44-17.55 96.46-17.62 96.48-17.68 96.53-17.82L96.53-17.82Q96.53-17.86 96.46-17.89 96.39-17.91 96.34-17.91L96.34-17.91 95.81-17.91Q95.81-17.64 95.89-17.57 95.98-17.5 96.12-17.28L96.12-17.28 96.34-17.46ZM166.63-3.01L166.63-3.01Q168.16-2.11 168.93-1.62L168.93-1.62Q171.72 0.09 173.72 1.08 175.72 2.07 178.2 2.56L178.2 2.56Q178.06 3.46 177.12 4.52 176.18 5.58 174.69 6.93L174.69 6.93 173.84 7.74Q172.35 7.88 170.66 7.13 168.97 6.39 167.49 5.29 166 4.18 165.19 3.15L165.19 3.15 164.61 2.43Q163.57 0.99 162.76 0.63L162.76 0.63Q161.1 3.1 157.37 4.84 153.63 6.57 148.59 7.33L148.59 7.33Q150.3 6.43 153.11 4.14 155.93 1.84 158.18-0.36 160.43-2.56 160.51-3.15L160.51-3.15Q159.62-4.18 158.63-6.97 157.63-9.76 157.68-11.25L157.68-11.25Q156.28-12.15 155.32-13.12 154.35-14.08 154.03-15.25L154.03-15.25Q154.08-15.3 154.49-15.3L154.49-15.3Q154.94-15.3 155.43-15.25 155.93-15.21 156.19-15.25L156.19-15.25Q156.96-15.48 157.59-15.68 158.22-15.88 158.76-16.06L158.76-16.06Q160.92-16.83 162.22-17.14L162.22-17.14 162.13-20.79Q161.32-20.79 159.53-20.34L159.53-20.34Q158-19.93 157.23-19.93L157.23-19.93Q156.87-19.93 156.6-20.07L156.6-20.07Q155.93-20.29 154.15-21.91 152.37-23.54 152.28-24.12L152.28-24.12Q152.59-24.34 153.11-24.39 153.63-24.43 154.53-24.43L154.53-24.43Q155.12-23.89 156.51-23.89L156.51-23.89Q157.95-23.89 160.92-24.66L160.92-24.66 161.91-24.88 161.91-28.17Q161.78-28.44 161.78-28.8L161.78-28.8Q161.78-29.16 161.82-29.5 161.87-29.83 161.87-30.2L161.87-30.2Q161.87-30.78 161.64-31.18 161.41-31.59 160.97-32.13L160.97-32.13Q160.51-32.58 160.29-32.98 160.06-33.39 160.02-33.98L160.02-33.98Q160.88-34.56 162.68-34.56L162.68-34.56Q164.16-34.56 165.58-34.16 167-33.75 167.72-33.03L167.72-33.03Q167.72-32.17 167.4-31.52 167.09-30.87 167-30.51L167-30.51 166.59-27.4 166.32-25.7 166.68-25.7Q167.22-26.05 168.84-26.68 170.46-27.31 171.13-27.36L171.13-27.36Q172.98-25.88 174.17-24.73 175.37-23.58 175.37-22.45L175.37-22.45Q175.37-22 175.14-21.73L175.14-21.73Q174.96-21.46 174.38-21.31 173.79-21.15 173.12-21.15L173.12-21.15Q172.57-21.15 172.31-21.2L172.31-21.2Q171.59-21.38 170.19-21.38L170.19-21.38Q168.57-21.38 165.51-21.02L165.51-21.02Q165.42-20.56 165.33-19.06 165.24-17.55 165.24-17.28L165.24-17.28Q166.05-17.55 167.04-18.18L167.04-18.18Q168.07-18.81 168.8-19.1 169.51-19.39 170.37-19.44L170.37-19.44 171.18-18.68Q172.31-17.55 172.87-16.67 173.43-15.79 173.47-14.45L173.47-14.45Q172.57-13.54 171.88-12.38 171.18-11.21 170.32-9.36L170.32-9.36Q169.25-7.15 168.41-5.8 167.58-4.46 166.37-3.51L166.37-3.51 166.63-3.01ZM152.73-14.67L152.73-14.67Q152.73-14.49 152.1-13.81 151.47-13.14 151.34-13L151.34-13Q150.16-11.79 149.47-10.96 148.77-10.13 148.46-9.45L148.46-9.45Q148.28-9.09 148.37-7.15L148.37-7.15 148.37-4.86Q148.37 0.32 148.05 2.16L148.05 2.16Q147.82 3.33 147.15 4.77 146.47 6.21 145.66 6.57L145.66 6.57Q145.53 6.66 144.61 5.94 143.69 5.22 142.38 3.71 141.07 2.21 139.72-0.04L139.72-0.04Q142.16 0.27 143.24 0.27L143.24 0.27Q143.73 0.27 143.82 0.18L143.82 0.18Q143.87-0.63 143.91-1.87 143.96-3.1 143.96-3.78L143.96-3.78 144.04-6.48 143.73-6.48Q143.59-6.3 143.06-5.58 142.51-4.86 141.93-4.32 141.34-3.78 140.9-3.69L140.9-3.69Q140.58-3.55 140.22-3.55L140.22-3.55Q138.96-3.55 138.28-5 137.61-6.43 137.61-8.28L137.61-8.28Q137.61-9.09 137.75-9.67L137.75-9.67 138.15-9.67Q138.47-9.4 138.76-9.07 139.05-8.73 139.41-8.41L139.41-8.41Q139.77-8.64 142.06-9.76L142.06-9.76 144.04-10.8Q143.96-18.04 143.91-18.36L143.91-18.36Q142.97-18.31 142.4-18.2 141.84-18.09 141.16-17.86L141.16-17.86Q140.53-17.64 139.81-17.46L139.81-17.46 139.28-18.18Q138.47-19.35 138.04-20.23 137.61-21.11 137.34-22.68L137.34-22.68 138.1-22.68Q139-21.38 141.25-21.38L141.25-21.38Q142.56-21.38 143.73-21.73L143.73-21.73Q143.87-22.23 143.87-24.79L143.87-24.79Q143.87-26.86 143.78-29 143.69-31.14 143.59-31.41L143.59-31.41Q143.5-31.63 142.92-32.22L142.92-32.22Q142.2-32.76 142.06-33.39L142.06-33.39Q142.38-33.62 143.5-34 144.63-34.38 145.84-34.38L145.84-34.38Q148.59-34.38 149.99-32.27L149.99-32.27Q149.94-31.23 149.31-29.43L149.31-29.43Q149.13-28.98 148.86-27.99L148.86-27.99Q148.86-27.09 148.95-25.11L148.95-25.11 149-23.49Q150.03-24.07 151.2-24.07L151.2-24.07Q151.56-24.07 151.69-24.03L151.69-24.03Q152.91-22.41 153.18-20.52L153.18-20.52Q152.59-20.2 151.04-19.96 149.49-19.71 148.86-19.71L148.86-19.71Q148.86-19.13 148.81-18.54 148.77-17.95 148.72-17.5L148.72-17.5Q148.68-16.83 148.63-16 148.59-15.16 148.59-14.26L148.59-14.26Q148.59-13.37 148.72-13.28L148.72-13.28Q149.22-13.72 150.97-14.4 152.73-15.07 152.73-14.67L152.73-14.67ZM163.4-32.09L163.4-32.09Q163.49-32.27 163.53-32.53L163.53-32.53Q163.44-32.63 163.31-32.63L163.31-32.63 163.31-31.86 163.4-31.86 163.4-32.09ZM145.75-32.09L145.75-32.09Q145.75-32.09 145.84-32.02 145.94-31.95 146.03-32.09L146.03-32.09 145.75-32.09ZM168.88-16.16L168.88-16.16Q169.25-15.66 169.31-15.46 169.38-15.25 169.34-14.58L169.34-14.58Q169.6-14.63 169.74-14.76L169.74-14.76Q170.19-15.07 170.28-16.06L170.28-16.06Q170.01-16.11 169.72-16.29 169.43-16.47 169.2-16.56L169.2-16.56 168.88-16.16ZM163.22-6.97L163.22-6.97Q164.25-8.37 164.63-9.2 165.01-10.04 166.09-12.96L166.09-12.96Q166.14-13.05 166.52-13.88 166.91-14.71 166.72-15.16L166.72-15.16 166.09-15.16Q165.51-14.8 163.62-14.26L163.62-14.26Q161.73-13.77 160.72-13.3 159.7-12.82 159.62-11.97L159.62-11.97Q160.65-11.21 162.54-8.01L162.54-8.01 163.22-6.97ZM161.82-4.72L161.82-4.72Q161.69-4.86 161.55-4.86L161.55-4.86Q161.64-4.59 161.73-4.46L161.73-4.46 161.82-4.46 161.82-4.72ZM174.1 3.73L174.1 3.73Q174.47 3.65 174.53 3.6 174.6 3.55 174.69 3.24L174.69 3.24Q174.24 3.1 173.7 2.97 173.16 2.83 172.57 2.83L172.57 2.83Q172.66 3.1 172.94 3.65L172.94 3.65Q173.34 3.65 173.66 3.69 173.97 3.73 174.1 3.73L174.1 3.73ZM145.22 3.51L145.22 3.51Q145.17 3.33 144.94 3.33L144.94 3.33 145.03 3.69 145.22 3.69 145.22 3.51ZM163.53-31.23L163.53-31.54 163.4-31.54 163.4-31.23 163.53-31.23ZM157.95-13.09L157.86-13.23 157.28-13.23 157.28-12.91 157.95-12.91 157.95-13.09Z" transform="translate(-1.6200000047683716, 35.099998474121094)"></path></g> </g></g> <g fill-rule="" class="tp-slogan" fill="#fff" transform="translate(5,45.97999954223633)"><rect x="0" height="1" y="3.1700000762939453" width="27.895000457763672"></rect> <rect height="1" y="3.1700000762939453" width="27.895000457763672" x="138.68500137329102"></rect> <g transform="translate(30.895000457763672,0)"><g transform="scale(1)"><path d="M4.40 0L0.71 0L0.71-1.31L4.07-1.31Q4.87-1.31 5.14-1.46L5.14-1.46Q5.52-1.69 5.52-2.16L5.52-2.16Q5.52-2.69 5.07-2.94L5.07-2.94Q4.82-3.08 4.26-3.08L4.26-3.08L2.89-3.08Q1.65-3.08 1.10-3.53L1.10-3.53Q0.76-3.82 0.57-4.25Q0.37-4.67 0.37-5.17L0.37-5.17Q0.37-5.94 0.82-6.58L0.82-6.58Q1.26-7.19 2.23-7.30L2.23-7.30Q2.56-7.34 3.21-7.34L3.21-7.34L6.85-7.34L6.85-6.03L3.56-6.03Q2.83-6.02 2.58-5.96L2.58-5.96Q2.09-5.84 2.09-5.21L2.09-5.21Q2.09-4.69 2.51-4.51L2.51-4.51Q2.78-4.38 3.43-4.38L3.43-4.38L4.61-4.38Q5.51-4.38 5.95-4.22L5.95-4.22Q6.73-3.96 7.03-3.30L7.03-3.30Q7.26-2.77 7.26-2.17L7.26-2.17Q7.26-1.50 6.95-0.97L6.95-0.97Q6.52-0.22 5.67-0.07L5.67-0.07Q5.25 0 4.40 0L4.40 0ZM10.02 0L10.02-6.03L7.69-6.03L7.69-7.34L14.01-7.34L14.01-6.03L11.58-6.03L11.58 0L10.02 0ZM15.93 0L14.10 0L17.14-7.34L18.93-7.34L21.97 0L20.14 0L19.43-1.69L16.64-1.69L15.93 0ZM19.09-3.00L18.04-5.57L16.99-3.00L19.09-3.00ZM25.57-2.78L24.32-2.78L24.32 0L22.76 0L22.76-7.34L26.34-7.34Q27.88-7.34 28.49-6.94L28.49-6.94Q28.91-6.68 29.13-6.24Q29.36-5.81 29.36-5.29L29.36-5.29Q29.36-4.25 28.83-3.67L28.83-3.67Q28.50-3.33 27.96-3.16L27.96-3.16Q28.39-3.00 28.61-2.83Q28.83-2.66 29.01-2.33L29.01-2.33Q29.14-2.07 29.20-1.83Q29.26-1.58 29.29-1.11L29.29-1.11Q29.36-0.32 29.47 0L29.47 0L27.72 0Q27.64-0.25 27.55-1.04L27.55-1.04Q27.50-1.68 27.33-2.02Q27.16-2.36 26.82-2.56L26.82-2.56Q26.39-2.79 25.57-2.78L25.57-2.78ZM24.32-6.03L24.32-4.09L26.51-4.09Q27.06-4.09 27.29-4.26L27.29-4.26Q27.64-4.50 27.64-5.10L27.64-5.10Q27.64-5.77 27.11-5.96L27.11-5.96Q26.93-6.03 26.51-6.03L26.51-6.03L24.32-6.03ZM30.52-3.21L30.52-7.34L32.08-7.34L32.08-3.21Q32.11-2.43 32.14-2.18L32.14-2.18Q32.22-1.67 32.63-1.49Q33.03-1.31 34.06-1.31L34.06-1.31L35.55-1.31L35.55 0L33.89 0Q32.71 0 32.19-0.13L32.19-0.13Q30.98-0.48 30.65-1.67L30.65-1.67Q30.52-2.13 30.52-3.21L30.52-3.21ZM38.03 0L36.46 0L36.46-7.34L38.03-7.34L38.03 0ZM42.21-3.05L42.21-4.36L45.80-4.36L45.80 0L42.53 0Q41.68 0 41.18-0.13Q40.68-0.25 40.27-0.57L40.27-0.57Q39.12-1.46 39.12-3.64L39.12-3.64Q39.12-5.06 39.67-6.01L39.67-6.01Q40.07-6.70 40.78-7.02Q41.48-7.34 42.60-7.34L42.60-7.34L45.80-7.34L45.80-6.03L42.78-6.03Q41.80-6.03 41.36-5.60L41.36-5.60Q40.83-5.09 40.83-3.78L40.83-3.78Q40.83-3.11 40.97-2.57Q41.11-2.03 41.35-1.77L41.35-1.77Q41.56-1.53 41.93-1.42Q42.29-1.31 42.83-1.31L42.83-1.31L44.25-1.31L44.25-3.05L42.21-3.05ZM51.51-7.34L53.06-7.34L53.06 0L51.51 0L51.51-3.04L48.67-3.04L48.67 0L47.11 0L47.11-7.34L48.67-7.34L48.67-4.34L51.51-4.34L51.51-7.34ZM56.19 0L56.19-6.03L53.86-6.03L53.86-7.34L60.18-7.34L60.18-6.03L57.75-6.03L57.75 0L56.19 0ZM66.48 0L66.48-7.34L69.60-7.34Q70.76-7.34 71.40-7.11L71.40-7.11Q72.58-6.68 72.97-5.53L72.97-5.53Q73.27-4.65 73.27-3.65L73.27-3.65Q73.27-2.66 72.98-1.78L72.98-1.78Q72.70-0.88 72.04-0.45L72.04-0.45Q71.62-0.19 71.12-0.09Q70.62 0 69.60 0L69.60 0L66.48 0ZM69.60-6.03L68.05-6.03L68.05-1.31L69.60-1.31Q70.62-1.31 71.02-1.76L71.02-1.76Q71.26-2.05 71.41-2.56Q71.55-3.08 71.55-3.66L71.55-3.66Q71.55-4.31 71.38-4.85Q71.20-5.39 70.92-5.65L70.92-5.65Q70.50-6.03 69.60-6.03L69.60-6.03ZM77.18-2.78L75.92-2.78L75.92 0L74.36 0L74.36-7.34L77.95-7.34Q79.49-7.34 80.09-6.94L80.09-6.94Q80.51-6.68 80.73-6.24Q80.96-5.81 80.96-5.29L80.96-5.29Q80.96-4.25 80.43-3.67L80.43-3.67Q80.10-3.33 79.56-3.16L79.56-3.16Q79.99-3.00 80.21-2.83Q80.43-2.66 80.61-2.33L80.61-2.33Q80.74-2.07 80.80-1.83Q80.86-1.58 80.89-1.11L80.89-1.11Q80.96-0.32 81.07 0L81.07 0L79.32 0Q79.24-0.25 79.16-1.04L79.16-1.04Q79.10-1.68 78.93-2.02Q78.76-2.36 78.42-2.56L78.42-2.56Q77.99-2.79 77.18-2.78L77.18-2.78ZM75.92-6.03L75.92-4.09L78.11-4.09Q78.66-4.09 78.89-4.26L78.89-4.26Q79.24-4.50 79.24-5.10L79.24-5.10Q79.24-5.77 78.72-5.96L78.72-5.96Q78.53-6.03 78.11-6.03L78.11-6.03L75.92-6.03ZM85.08-7.34L87.71-7.34L87.71-6.03L85.68-6.03Q84.89-6.03 84.52-5.92Q84.16-5.81 83.92-5.49L83.92-5.49Q83.75-5.27 83.69-5.05Q83.63-4.83 83.59-4.30L83.59-4.30L87.71-4.30L87.71-2.99L83.59-2.99Q83.68-2.05 84.15-1.68Q84.62-1.31 85.76-1.31L85.76-1.31L87.71-1.31L87.71 0L85.68 0Q84.85 0 84.23-0.10L84.23-0.10Q83.24-0.26 82.65-0.97L82.65-0.97Q81.82-1.98 81.82-3.71L81.82-3.71Q81.82-5.62 82.99-6.69L82.99-6.69Q83.40-7.05 83.86-7.19Q84.31-7.34 85.08-7.34L85.08-7.34ZM90.06 0L88.23 0L91.27-7.34L93.06-7.34L96.10 0L94.27 0L93.55-1.69L90.77-1.69L90.06 0ZM93.21-3.00L92.17-5.57L91.12-3.00L93.21-3.00ZM96.85-7.34L99.13-7.34L100.96-1.61L102.88-7.34L105.16-7.34L105.16 0L103.67 0L103.67-5.50L101.76 0L100.15 0L98.34-5.50L98.34 0L96.85 0L96.85-7.34Z" transform="translate(-0.374, 7.337)"></path></g></g></g></g></g></g><mask id="ed5dadc4-a1c9-4f42-b662-9c7c904117a7"><g fill="white"><g><rect fill-opacity="1" stroke-width="2" x="0" y="0" width="120" height="113.41404632963793" class="image-rect"></rect> <svg x="0" y="0" width="120" height="113.41404632963793" class="image-svg-svg primary" style="overflow: visible;" filter="url(#colorsf8539731965)"><svg xmlns="http://www.w3.org/2000/svg" viewBox="0.7709989547729492 0.2125091552734375 211.613525390625 200.00039672851562"><path d="M11.53 14.574c-25.644 28.501-3.877 89.947 48.616 137.244s115.836 62.534 141.48 34.033c9.661-10.739 12.593-26.153 9.687-43.726-.33 7.704-2.605 14.513-7.024 19.974-19.426 24.009-72.934 12.877-119.513-24.865-46.578-37.742-68.589-87.802-49.162-111.81C51.2 6.16 88.724 9.517 127.006 31.09c4.656 6.559 4.318 11.26 3.471 15.547l-.094.464c-.063.308-.129.614-.194.92l-.147.684-.092.438c-.198.947-.377 1.888-.483 2.84 7.876-6.566 18.03-5.732 30.459 2.503l.44.293c-11.894-9.641-15.862-19.283-11.904-28.924-.81.352-1.594.76-2.377 1.188l-.39.216-.589.328-.59.33-.398.22c-.398.22-.801.436-1.213.646l-.413.208c-3.208 1.579-6.943 2.675-12.613 1.267C83.109-2.162 33.493-9.836 11.53 14.574z" fill-rule="evenodd" opacity=".989"></path></svg></svg> <defs> </defs></g></g> <g transform="translate(-21.290000915527344,29.54851722717285)" fill="black" stroke="black" stroke-width="6" stroke-linejoin="round"><g fill-rule="" class="tp-name" transform="translate(0,0)"><g transform="scale(1)"><g><path d="M42.25-13.95L42.25-13.95Q42.39-13.68 43.24-12.38L43.24-12.38Q43.83-11.56 44.12-11.07 44.41-10.57 44.41-10.21L44.41-10.21Q44.41-9.76 43.92-9.63L43.92-9.63Q43.6-9.49 43.16-9.49L43.16-9.49Q42.48-9.49 41.49-9.76 40.5-10.04 40.14-10.13L40.14-10.13Q38.56-10.48 36.05-10.48L36.05-10.48Q34.24-10.48 31.36-10.3L31.36-10.3 29.97-10.21Q30.02-7.74 30.29-6.17 30.55-4.59 30.82-3.89 31.09-3.19 31.23-3.15L31.23-3.15Q31.23-3.15 31.95-3.87L31.95-3.87Q33.3-5.22 34.06-6.14 34.83-7.06 34.83-7.74L34.83-7.74Q35.01-7.92 35.55-7.92L35.55-7.92Q36.67-7.92 38.12-7.25 39.55-6.57 39.55-5.89L39.55-5.89Q37.89-4.41 37.17-3.65L37.17-3.65Q35.87-2.34 33.7-0.72L33.7-0.72Q36.85 2.7 37.53 2.61L37.53 2.61Q38.2 1.8 38.81 0.85 39.42-0.09 40.73-2.48L40.73-2.48Q41.58 1.44 42.48 5.63L42.48 5.63 42.7 6.66Q40.81 7.47 38.97 7.47L38.97 7.47Q36.23 7.47 34.16 6.1 32.09 4.72 29.83 2.48L29.83 2.48 29.07 1.71Q28.98 2.11 27.52 2.92 26.05 3.73 24.37 4.32 22.68 4.91 21.78 4.81L21.78 4.81Q22.23 4.37 24.34 2.65L24.34 2.65Q26.05 1.3 26.95 0.47 27.86-0.36 27.9-0.9L27.9-0.9Q27.18-1.8 26.68-3.98 26.19-6.17 25.92-8.32L25.92-8.32Q25.74-8.78 25.74-9.9L25.74-9.9Q23.94-10.13 21.33-10.13L21.33-10.13Q18.99-10.13 18.4-9.9L18.4-9.9Q18.45-9.67 19.51-9.31 20.56-8.96 21.78-8.59L21.78-8.59 23.85-7.96Q24.39-7.06 24.39-6.12L24.39-6.12Q24.39-4.86 23.45-3.73L23.45-3.73 20.02-6.39Q19.53-6.84 18.97-7.22 18.4-7.6 17.23-8.32L17.23-8.32 17.23-7.47Q17.32-7.15 17.41-6.5 17.5-5.85 17.5-5.26L17.5-5.26Q17.5-4.72 17.46-4.54L17.46-4.54 14.13-4.54 14.13-5.44Q14.13-6.17 13.95-6.52L13.95-6.52Q12.51-5.54 10.91-5.08 9.31-4.63 6.71-4.23L6.71-4.23Q6.39-4.14 5.42-3.85 4.46-3.55 3.87-3.55L3.87-3.55Q3.6-3.55 3.51-3.6L3.51-3.6Q4.46-4.41 7.47-6.08L7.47-6.08Q9.45-7.25 10.37-7.83 11.29-8.41 11.79-8.96L11.79-8.96Q10.44-8.73 8.1-8.37 5.76-8.01 4.72-7.88L4.72-7.88Q3.87-8.14 2.88-9.25 1.89-10.35 1.62-11.21L1.62-11.21Q1.75-11.25 2.11-11.25L2.11-11.25 3.24-11.21 5.08-11.07Q5.31-11.03 6.21-11.03L6.21-11.03Q8.14-11.03 10.96-11.32 13.77-11.61 13.95-11.83L13.95-11.83Q14.22-12.2 14.22-12.73L14.22-12.73Q14.22-13.23 13.95-13.5L13.95-13.5Q13.28-13.23 11.43-12.94 9.58-12.64 7.96-12.64L7.96-12.64Q6.21-12.64 5.35-13.09L5.35-13.09Q6.25-13.5 8.05-13.9L8.05-13.9Q8.46-14.04 9.31-14.26 10.17-14.49 10.84-14.76L10.84-14.76Q11.61-15.07 13.99-16.2L13.99-16.2Q16.34-17.37 18-18L18-18 4.46-16.7Q4-16.61 3.82-16.61L3.82-16.61Q2.7-16.61 2.36-17.53 2.02-18.45 1.89-20.2L1.89-20.2Q1.98-20.2 3.55-20.07L3.55-20.07Q5-19.98 5.8-19.84L5.8-19.84Q6.57-19.66 7.69-19.66L7.69-19.66Q8.64-19.66 10.66-19.89L10.66-19.89Q12.42-20.11 14.71-20.32 17.01-20.52 17.95-20.61L17.95-20.61 20.16-20.79 20.16-22.23Q17.91-22.09 15.25-21.55L15.25-21.55 13.18-21.55Q12.69-21.38 11.77-21.22 10.84-21.06 10.17-21.06L10.17-21.06Q9.81-21.06 9.45-21.15L9.45-21.15Q8.64-21.33 7.85-22.45 7.06-23.58 7.06-24.39L7.06-24.39Q7.96-23.8 9.95-23.8L9.95-23.8Q12.87-23.8 16.92-24.75L16.92-24.75Q17.37-24.88 18.36-24.88L18.36-24.88Q18.5-24.88 19.08-24.93 19.66-24.97 20.02-25.15L20.02-25.15Q20.16-25.38 20.16-25.92L20.16-25.92 17.28-25.96Q15.03-25.96 13.63-25.65L13.63-25.65Q13.37-25.56 12.01-25.18 10.66-24.79 9.58-24.79L9.58-24.79Q9.27-24.79 8.91-24.88L8.91-24.88Q7.96-25.06 7.04-26.14 6.12-27.22 5.44-28.44L5.44-28.44 5.94-28.44Q6.39-28.08 7.38-27.9 8.37-27.72 9.54-27.72L9.54-27.72Q10.53-27.72 11.25-27.86L11.25-27.86Q11.97-27.95 12.46-27.95L12.46-27.95Q12.69-27.95 13.46-27.95 14.22-27.95 14.85-28.04L14.85-28.04Q15.97-28.26 17.01-28.3L17.01-28.3 15.16-29.83Q13.23-31.41 12.35-32.2 11.47-32.98 11.52-33.3L11.52-33.3Q13.81-33.34 15.52-33.07 17.23-32.8 18.68-32.13L18.68-32.13Q18.86-31.14 18.86-30.51L18.86-30.51Q18.86-28.93 18.09-28.39L18.09-28.39Q19.8-28.53 23.49-28.53L23.49-28.53Q23.8-29.11 24.37-29.61 24.93-30.11 25.88-30.78L25.88-30.78Q27.13-31.63 27.88-32.38 28.62-33.12 28.84-34.16L28.84-34.16Q28.8-34.2 28.71-34.34 28.62-34.47 28.62-34.54 28.62-34.6 28.66-34.74L28.66-34.74Q28.84-35.1 29.47-35.1L29.47-35.1Q30.15-35.1 31.09-34.6 32.04-34.11 32.74-33.41 33.44-32.71 33.48-32.09L33.48-32.09Q31.59-30.96 30.22-30.4 28.84-29.83 26.95-29.25L26.95-29.25 25.74-28.84 31.23-29.16 32.49-29.43Q34.06-29.79 35.26-29.97 36.45-30.15 37.93-30.15L37.93-30.15Q38.02-29.97 38.74-29.29L38.74-29.29Q39.46-28.53 39.78-27.99 40.09-27.45 40.14-26.46L40.14-26.46Q40-26.37 39.82-26.19 39.64-26.01 39.44-25.94 39.24-25.88 38.84-25.88L38.84-25.88Q38.02-26.37 34.74-26.37L34.74-26.37Q33.3-26.37 30.78-26.28L30.78-26.28 28.44-26.19 26.59-26.23Q25.43-26.23 25.11-25.88L25.11-25.88Q25.06-25.79 24.93-25.15L24.93-25.15Q25.88-25.2 26.68-25.29 27.49-25.38 28.13-25.43L28.13-25.43Q30.55-25.74 32.17-25.74L32.17-25.74Q33.25-25.74 33.93-25.56L33.93-25.56Q34.02-25.29 34.42-24.7L34.42-24.7Q34.74-24.16 34.9-23.83 35.05-23.49 35.1-22.95L35.1-22.95Q34.56-22.5 34.29-22.36 34.02-22.23 33.21-22.23L33.21-22.23Q32.58-22.63 30.24-22.63L30.24-22.63Q28.75-22.63 26.32-22.45L26.32-22.45Q25.06-22.36 24.66-22.36L24.66-22.36Q24.66-22.18 24.59-21.87 24.52-21.55 24.52-21.2L24.52-21.2Q30.51-21.55 42.25-22L42.25-22Q42.48-21.73 43.02-21.13 43.56-20.52 43.85-19.89 44.14-19.26 44.14-18.5L44.14-18.5Q43.65-18.04 43.36-17.93 43.06-17.82 42.12-17.86L42.12-17.86Q42.03-17.82 41.53-17.82L41.53-17.82Q40.32-17.82 35.87-18.31L35.87-18.31Q35.41-18.45 34.42-18.45L34.42-18.45Q33.88-18.45 32.8-18.36L32.8-18.36Q31.32-18.27 30.69-18.31L30.69-18.31Q28.08-18.59 25.29-18.59L25.29-18.59Q23.8-18.59 22.72-18.45L22.72-18.45Q22.45-18.4 21.91-18.4L21.91-18.4 20.11-18.45Q19.13-18.45 18.77-18.18L18.77-18.18Q19.13-17.59 20.25-16.79L20.25-16.79Q20.84-16.34 21.08-16.06 21.33-15.79 21.33-15.39L21.33-15.39Q21.33-15.07 21.06-14.58L21.06-14.58Q19.3-13.72 17.37-13.63L17.37-13.63 17.37-12.24Q21.64-12.55 25.24-12.6L25.24-12.6Q25.38-13.28 25.38-13.72L25.38-13.72Q25.38-14.17 25.29-14.89L25.29-14.89Q25.15-15.52 25.15-16.25L25.15-16.25Q25.15-17.01 25.24-17.5L25.24-17.5Q25.96-17.82 26.82-17.82L26.82-17.82Q27.27-17.46 28.71-17.19L28.71-17.19Q29.92-17.01 30.51-16.65L30.51-16.65Q30.6-16.52 30.69-16.25L30.69-16.25Q30.69-16.11 30.42-15.3L30.42-15.3Q29.88-13.9 29.88-13L29.88-13Q30.91-12.73 32.71-12.73L32.71-12.73Q33.7-12.73 34.45-12.85 35.19-12.96 35.37-13.14L35.37-13.14Q34.78-13.37 33.46-15.14 32.13-16.92 31.99-17.68L31.99-17.68Q32.09-17.73 32.22-17.82 32.35-17.91 32.67-17.95L32.67-17.95Q33.34-17.55 34.78-17.46L34.78-17.46Q35.91-17.32 36.49-17.12 37.08-16.92 37.3-16.25L37.3-16.25Q37.66-15.84 37.66-15.25L37.66-15.25Q37.66-14.63 37.24-13.93 36.81-13.23 36.67-13L36.67-13 37.8-13Q39.06-13.95 42.25-13.95L42.25-13.95ZM30.69-32.89L30.69-32.89Q30.73-32.71 30.76-32.67 30.78-32.63 30.91-32.53L30.91-32.53 30.91-32.89 30.69-32.89ZM40.86-12.2L40.86-12.2Q40.63-12.42 40.63-12.42L40.63-12.42 40.63-12.01 40.86-12.01 40.86-12.2ZM21.87 0.14L21.87 0.14Q22.09 0.49 22.09 0.85L22.09 0.85Q22.09 1.08 22.03 1.35 21.96 1.62 21.91 2.02L21.91 2.02Q21.82 3.69 21.08 4.79 20.34 5.89 19.51 6.71 18.68 7.51 18.4 7.74L18.4 7.74Q17.05 7.88 16.92 7.88L16.92 7.88Q16.38 7.88 16.2 7.74L16.2 7.74Q15.88 7.6 14.71 6.57 13.54 5.54 12.96 4.91L12.96 4.91 14.67 4.95Q15.79 4.95 16.52 4.72L16.52 4.72Q17.1 3.87 17.82 2.02L17.82 2.02Q17.14 2.11 16.63 2.11 16.11 2.11 15.75 2.16L15.75 2.16Q14.58 2.16 14.17 2.29L14.17 2.29Q13.68 2.43 13.14 2.88L13.14 2.88Q12.78 3.19 12.49 3.33 12.2 3.46 11.7 3.51L11.7 3.51Q11.34 3.24 10.84 2.92 10.35 2.61 10.04 2.29L10.04 2.29Q10.13 2.02 10.53-0.22L10.53-0.22Q10.21-0.18 9.86-0.02 9.49 0.14 9.36 0.18L9.36 0.18Q8.37 0.54 7.83 0.58L7.83 0.58 6.97-0.09Q6.08-0.77 5.65-1.3 5.22-1.84 5.13-2.7L5.13-2.7Q5.44-2.65 6.34-2.61 7.25-2.56 8.23-2.56L8.23-2.56Q9.09-2.56 9.27-2.61L9.27-2.61Q10.39-2.88 13.77-3.38L13.77-3.38Q19.13-4.09 19.98-4.54L19.98-4.54Q22.68-3.46 22.68-2.21L22.68-2.21Q22.68-1.84 22.45-1.4L22.45-1.4 21.2-1.4Q21.02-1.48 20.29-1.48L20.29-1.48Q19.04-1.48 17.03-1.3 15.03-1.13 14.45-0.94L14.45-0.94 14.35 0.04 14.63 0.04Q14.94 0.22 15.52 0.22L15.52 0.22Q16.16 0.22 17.03 0 17.91-0.22 18.68-0.49L18.68-0.49Q19.89-0.9 20.25-0.94L20.25-0.94Q20.47-0.81 21.08-0.54 21.69-0.27 21.87 0.14L21.87 0.14ZM19.71 1.57L19.71 1.57Q19.71 1.67 19.64 1.89 19.57 2.11 19.57 2.29L19.57 2.29 19.89 2.29 19.89 1.93 20.11 1.57 19.71 1.57ZM33.21 1.8L33.21 1.8Q33.39 2.25 33.62 2.41 33.84 2.56 34.34 2.61L34.34 2.61 34.34 2.38Q34.2 2.29 34.02 2.14 33.84 1.98 33.62 1.93L33.62 1.93 33.21 1.8ZM79.52-25.79L79.52-25.79Q80.28-24.84 81.63-24.1 82.98-23.36 85.41-22.32L85.41-22.32Q87.75-21.38 88.83-20.7L88.83-20.7Q88.74-20.7 87.61-19.37 86.49-18.04 86.31-17.73L86.31-17.73Q86.04-17.59 85.68-17.59L85.68-17.59Q84.33-17.59 82.44-19.35 80.55-21.11 79.52-23.31L79.52-23.31 79.52-20.38Q79.6-20.25 79.6-19.71L79.6-19.71Q79.6-19.13 79.56-18.81L79.56-18.81 79.52-17.91Q78.97-17.5 78.19-17.17 77.4-16.83 76.59-16.7L76.59-16.7Q75.73-17.86 75.56-18.31 75.38-18.77 75.38-19.8L75.38-19.8 75.42-21.91Q73.31-19.84 71.33-18.7 69.34-17.55 67.19-17.59L67.19-17.59 67.77-18Q68.49-18.4 69.82-19.93 71.14-21.46 72.29-23.15 73.44-24.84 73.66-25.61L73.66-25.61Q72.86-25.65 71.28-25.2L71.28-25.2Q70.88-25.11 70.42-24.84L70.42-24.84Q70.16-24.7 69.84-24.59 69.53-24.48 69.03-24.48L69.03-24.48Q68.94-24.66 68.22-25.74L68.22-25.74Q67.23-27.09 66.91-28.04L66.91-28.04 67.23-28.04Q67.68-27.72 68.72-27.72L68.72-27.72Q70.06-27.72 72.77-28.26L72.77-28.26Q74.43-28.57 75.24-28.62L75.24-28.62 75.24-31.81Q75.02-31.95 74.66-31.95L74.66-31.95 74.43-31.95Q74.2-31.95 74.07-32.11 73.94-32.27 73.84-32.8L73.84-32.8Q74.47-33.21 75.73-33.66 77-34.11 78.07-34.11L78.07-34.11Q79.69-34.11 80.1-33.03L80.1-33.03Q80.41-32.27 80.41-31.68L80.41-31.68Q80.41-31.05 80.19-30.46L80.19-30.46Q80.01-29.83 80.01-29.43L80.01-29.43Q80.73-29.47 81.9-29.79L81.9-29.79Q82.13-29.83 82.96-30.02 83.79-30.2 84.38-30.2L84.38-30.2Q84.96-30.2 85.19-30.02L85.19-30.02Q85.86-29.83 86.4-29.02 86.94-28.21 87.07-27.27L87.07-27.27Q86.89-27.13 86.72-26.82 86.53-26.5 86.22-26.41L86.22-26.41Q85.91-26.28 83.03-26.19L83.03-26.19Q80.19-26.1 79.52-25.96L79.52-25.96 79.52-25.79ZM45.9-13.09L45.9-13.09Q47.07-13.72 48.83-15.71 50.58-17.68 52.16-20 53.73-22.32 54.31-23.89L54.31-23.89Q53.87-23.8 53.14-23.71L53.14-23.71Q52.97-23.71 52.27-23.63 51.57-23.54 50.49-23.18L50.49-23.18Q50.13-23.63 49.37-24.25L49.37-24.25Q48.51-24.97 48.08-25.49 47.66-26.01 47.7-26.68L47.7-26.68 48.51-26.73Q48.55-26.68 48.62-26.59 48.69-26.5 48.83-26.48 48.96-26.46 49.19-26.46L49.19-26.46Q49.55-26.46 52.52-26.73L52.52-26.73Q52.78-26.73 56.52-27.04L56.52-27.04 57.02-27.58Q56.92-27.9 56.92-28.71L56.92-28.71 56.92-29.88Q56.92-30.73 56.79-31.05L56.79-31.05Q56.66-31.77 56.41-32.06 56.16-32.35 56.12-32.4L56.12-32.4Q55.84-32.67 55.78-32.87 55.71-33.07 55.8-33.57L55.8-33.57Q56.07-33.52 56.34-33.52 56.61-33.52 56.92-33.48L56.92-33.48Q58.68-33.39 59.83-33.21 60.98-33.03 61.25-32.63L61.25-32.63Q61.52-32.35 61.52-31.5L61.52-31.5Q61.52-30.82 61.38-29.92L61.38-29.92Q61.34-29.61 61.29-29.14 61.25-28.66 61.25-28.13L61.25-28.13 61.42-28.04Q62.77-28.57 65.07-28.66L65.07-28.66Q65.2-28.53 65.75-28.1 66.28-27.68 66.64-27.18 67-26.68 67-26.28L67-26.28Q67-25.7 66.33-25.33L66.33-25.33Q65.92-25.02 64.13-25.02L64.13-25.02Q63.18-25.02 62.73-25.06L62.73-25.06Q62.41-25.06 62.03-25.09 61.65-25.11 61.25-25.06L61.25-25.06 61.25-24.97Q61.25-24.61 61.56-24.03L61.56-24.03Q61.92-23.67 62.57-23.42 63.22-23.18 64.35-22.86L64.35-22.86Q65.66-22.5 66.42-22.16 67.19-21.82 67.41-21.24L67.41-21.24Q67.19-20.97 66.96-20.02L66.96-20.02Q66.69-18.95 66.44-18.47 66.19-18 65.7-18.13L65.7-18.13Q64.98-18.36 62.91-20.25L62.91-20.25Q62.73-20.38 62.03-20.97 61.34-21.55 61.06-21.64L61.06-21.64Q60.98-21.29 60.98-20.79L60.98-20.79Q60.98-20.07 61.09-19.1 61.2-18.13 61.2-17.91L61.2-17.91Q61.06-17.59 61.06-17.01L61.06-17.01 61.11-15.93Q61.11-15.12 60.52-14.76L60.52-14.76Q59.67-14.49 58.73-14.04L58.73-14.04Q58-13.68 57.73-13.68L57.73-13.68Q57.47-13.68 57.33-13.99L57.33-13.99Q57.02-14.58 57.02-16.16L57.02-16.16Q57.02-17.05 57.11-18.68L57.11-18.68Q57.2-19.44 57.2-20.56L57.2-20.56Q56.07-18.81 53.84-17.08 51.62-15.34 49.34-14.24 47.07-13.14 45.9-13.09L45.9-13.09ZM58.45-31.18L58.45-31.18Q58.27-30.96 58.37-30.46L58.37-30.46Q58.37-30.42 58.41-30.38 58.45-30.33 58.5-30.33L58.5-30.33Q58.68-30.33 58.95-30.51L58.95-30.51 58.91-31.32 58.45-31.18ZM77.4-15.34L77.4-15.34Q78.34-15.48 79.67-14.83 81-14.17 81.99-13.18 82.98-12.2 83.03-11.43L83.03-11.43Q79.47-6.52 77.09-3.78 74.7-1.03 71.37 1.35 68.04 3.73 63.36 5.26L63.36 5.26Q60.57 6.17 56.79 6.82 53.01 7.47 50.09 7.42L50.09 7.42Q50.67 7.11 52.22 6.37 53.77 5.63 55.62 4.72L55.62 4.72Q61.11 2.11 60.98 2.11L60.98 2.11Q63.77 0.58 65.11-0.32L65.11-0.32 63.9-1.93Q61.29-5.35 60.57-6.08L60.57-6.08Q61.38-6.21 62.1-6.21L62.1-6.21Q63.36-6.21 64.51-5.83 65.66-5.44 67.63-4.5L67.63-4.5Q68-4.18 68.47-3.87 68.94-3.55 69.12-3.28L69.12-3.28Q70.65-4.63 71.46-5.44L71.46-5.44Q72.13-6.03 72.7-7.04 73.26-8.05 73.94-9.54L73.94-9.54Q74.16-10.08 74.34-10.46 74.52-10.84 74.66-11.12L74.66-11.12Q73.03-10.62 71.1-10.24 69.16-9.86 68.13-9.86L68.13-9.86Q67.63-9.86 66.91-10.21L66.91-10.21Q66.28-10.57 65.66-10.62L65.66-10.62Q64.62-9.81 63.67-9.29 62.73-8.78 61.85-8.41 60.98-8.05 60.62-7.88L60.62-7.88Q59.17-6.52 55.87-5.58 52.56-4.63 49.68-4.54L49.68-4.54Q54.45-7.25 58.23-10.57 62.01-13.9 63.31-17.23L63.31-17.23Q63.45-17.5 63.86-17.5L63.86-17.5Q64.53-17.5 65.86-16.65 67.19-15.79 68.67-14.45L68.67-14.45 68.67-14.31Q68.67-14.17 68.74-13.97 68.81-13.77 68.72-13.59L68.72-13.59 74.47-13.99Q75.02-14.13 75.38-14.35 75.73-14.58 75.83-14.63L75.83-14.63Q76.55-15.16 77.4-15.34L77.4-15.34ZM131.4-12.91L131.4-12.91Q131.53-12.55 132.3-11.43L132.3-11.43Q133.51-9.76 133.83-8.78L133.83-8.78Q133.78-8.23 133.54-8.05 133.29-7.88 132.8-7.88L132.8-7.88Q131.85-7.88 130.14-8.1L130.14-8.1Q129.33-8.19 129.06-8.19L129.06-8.19Q128.56-8.19 128.2-7.92L128.2-7.92Q127.84-7.33 127.84-4.72L127.84-4.72Q127.84-2.61 127.98-0.45L127.98-0.45Q128.07 2.07 128.07 2.92L128.07 2.92Q128.07 3.73 127.98 4.37L127.98 4.37Q127.71 5.4 127.22 6.48 126.72 7.56 126.27 7.29L126.27 7.29Q125.73 7.11 125.08 6.41 124.42 5.71 123.25 4.32L123.25 4.32Q123.03 4 122.83 3.8 122.63 3.6 122.53 3.46L122.53 3.46Q122.67 1.98 123.03-0.9L123.03-0.9Q123.57-4.86 123.7-6.97L123.7-6.97Q122.44-6.88 121.19-6.59 119.92-6.3 118.17-5.76L118.17-5.76Q116.1-5.17 114.8-4.88 113.49-4.59 112.09-4.54L112.09-4.54Q111.11-5.58 110.81-6.01 110.52-6.43 110.25-7.2L110.25-7.2Q109.98-8.01 109.58-8.87L109.58-8.87Q109.62-8.82 110.07-8.82L110.07-8.82Q112.14-8.82 117.45-9.63 122.76-10.44 123.97-11.12L123.97-11.12Q123.57-19.04 123.57-23.04L123.57-23.04Q123.57-27.09 123.84-28.89L123.84-28.89 123.53-30.11Q122.44-34.38 122.13-34.7L122.13-34.7Q122.31-34.88 122.63-34.88L122.63-34.88Q122.85-34.88 123.64-34.58 124.42-34.29 125.1-34.29L125.1-34.29Q125.5-34.16 126.72-33.93L126.72-33.93Q127.84-33.7 128.27-33.48 128.7-33.25 128.88-32.71 129.06-32.17 129.01-30.87L129.01-30.87Q128.84-30.64 128.43-22.95 128.03-15.25 128.03-11.92L128.03-11.92 131.4-12.91ZM109.98-12.55L109.98-12.55Q110.16-12.38 109.82-11.29 109.48-10.21 108.9-9.31 108.31-8.41 107.73-8.41L107.73-8.41Q107.59-8.41 107.37-8.55L107.37-8.55Q107.14-9.13 105.66-12.06 104.17-14.98 104.04-14.94L104.04-14.94Q103.91-13.28 104.36-4.91L104.36-4.91Q104.63 1.93 104.58 2.48L104.58 2.48Q104.58 4.27 104.08 5 103.59 5.71 102.96 6.05 102.33 6.39 102.24 6.57L102.24 6.57Q101.07 5.35 100.64 3.96 100.22 2.56 100.22 0.63L100.22 0.63Q100.22-0.04 100.31-1.93L100.31-1.93Q100.44-3.51 100.44-5.26L100.44-5.26Q100.44-6.57 100.31-8.05L100.31-8.05Q99.63-6.79 97.74-4.48 95.85-2.16 94-0.34 92.16 1.48 91.53 1.53L91.53 1.53Q92.79-0.27 94.52-3.8 96.25-7.33 97.58-10.87 98.91-14.4 99.18-16.16L99.18-16.16Q98.95-15.97 98.62-15.88 98.28-15.79 97.88-15.75L97.88-15.75Q96.3-15.48 95.81-15.34L95.81-15.34Q95.22-16.06 94.81-16.54 94.41-17.01 94.14-17.32L94.14-17.32Q93.47-18 93.35-18.31 93.24-18.63 93.19-19.71L93.19-19.71Q94.09-19.35 95.4-19.35L95.4-19.35Q96.75-19.35 98.14-19.73 99.54-20.11 100.39-20.61L100.39-20.61 100.39-27.9Q98.19-27.49 96.39-27.49L96.39-27.49Q95.31-27.49 94.66-27.61 94-27.72 94.09-27.9L94.09-27.9Q96.48-28.53 104.44-32.89L104.44-32.89Q104.94-33.12 105.7-33.98L105.7-33.98Q106.16-34.52 106.47-34.7L106.47-34.7Q106.97-34.78 107.59-34.11 108.22-33.44 108.65-32.35 109.08-31.27 109.08-30.33L109.08-30.33Q109.08-29.92 109.03-29.74L109.03-29.74Q108.41-29.11 107.66-28.84 106.92-28.57 106.22-28.44 105.53-28.3 105.3-28.26L105.3-28.26Q105.25-27.36 105.14-26.44 105.03-25.52 104.94-24.75L104.94-24.75Q104.58-22.09 104.53-21.15L104.53-21.15Q105.12-21.29 105.8-21.82L105.8-21.82Q106.61-22.36 107.01-22.36L107.01-22.36Q107.14-22.36 107.41-22.27L107.41-22.27Q108.27-22.05 108.94-20.99 109.62-19.93 109.58-18.63L109.58-18.63Q109.39-18.5 107.73-18.4L107.73-18.4Q106.29-18.31 105.53-18.2 104.76-18.09 104.53-17.77L104.53-17.77 104.36-17.41Q104.36-17.41 104.38-17.32 104.4-17.23 104.4-16.83L104.4-16.83Q106.29-15.93 107.91-14.69 109.53-13.46 109.98-12.55L109.98-12.55ZM119.03-21.2L119.03-21.2Q118.48-21.73 117.9-22.23 117.31-22.72 116.82-23.18L116.82-23.18Q114.03-25.65 112.63-27 111.24-28.35 111.33-28.75L111.33-28.75Q113.85-28.62 116.91-27.95 119.97-27.27 120.42-26.28L120.42-26.28Q120.83-25.43 120.83-23.45L120.83-23.45Q120.83-22.27 120.64-21.46L120.64-21.46Q120.33-21.33 119.99-21.26 119.66-21.2 119.03-21.2L119.03-21.2ZM117.99-11.21L117.99-11.21Q117.94-11.52 117.16-12.38 116.37-13.23 115.38-14.22L115.38-14.22Q113.53-16.02 112.39-17.28 111.24-18.54 110.75-19.66L110.75-19.66Q111.78-19.66 114.95-18.95 118.13-18.22 118.48-17.77L118.48-17.77Q118.94-17.19 119.23-16.11 119.52-15.03 119.52-13.95L119.52-13.95Q119.52-12.73 119.14-11.97 118.75-11.21 117.99-11.21L117.99-11.21ZM96.34-17.46L96.34-17.46Q96.44-17.55 96.46-17.62 96.48-17.68 96.53-17.82L96.53-17.82Q96.53-17.86 96.46-17.89 96.39-17.91 96.34-17.91L96.34-17.91 95.81-17.91Q95.81-17.64 95.89-17.57 95.98-17.5 96.12-17.28L96.12-17.28 96.34-17.46ZM166.63-3.01L166.63-3.01Q168.16-2.11 168.93-1.62L168.93-1.62Q171.72 0.09 173.72 1.08 175.72 2.07 178.2 2.56L178.2 2.56Q178.06 3.46 177.12 4.52 176.18 5.58 174.69 6.93L174.69 6.93 173.84 7.74Q172.35 7.88 170.66 7.13 168.97 6.39 167.49 5.29 166 4.18 165.19 3.15L165.19 3.15 164.61 2.43Q163.57 0.99 162.76 0.63L162.76 0.63Q161.1 3.1 157.37 4.84 153.63 6.57 148.59 7.33L148.59 7.33Q150.3 6.43 153.11 4.14 155.93 1.84 158.18-0.36 160.43-2.56 160.51-3.15L160.51-3.15Q159.62-4.18 158.63-6.97 157.63-9.76 157.68-11.25L157.68-11.25Q156.28-12.15 155.32-13.12 154.35-14.08 154.03-15.25L154.03-15.25Q154.08-15.3 154.49-15.3L154.49-15.3Q154.94-15.3 155.43-15.25 155.93-15.21 156.19-15.25L156.19-15.25Q156.96-15.48 157.59-15.68 158.22-15.88 158.76-16.06L158.76-16.06Q160.92-16.83 162.22-17.14L162.22-17.14 162.13-20.79Q161.32-20.79 159.53-20.34L159.53-20.34Q158-19.93 157.23-19.93L157.23-19.93Q156.87-19.93 156.6-20.07L156.6-20.07Q155.93-20.29 154.15-21.91 152.37-23.54 152.28-24.12L152.28-24.12Q152.59-24.34 153.11-24.39 153.63-24.43 154.53-24.43L154.53-24.43Q155.12-23.89 156.51-23.89L156.51-23.89Q157.95-23.89 160.92-24.66L160.92-24.66 161.91-24.88 161.91-28.17Q161.78-28.44 161.78-28.8L161.78-28.8Q161.78-29.16 161.82-29.5 161.87-29.83 161.87-30.2L161.87-30.2Q161.87-30.78 161.64-31.18 161.41-31.59 160.97-32.13L160.97-32.13Q160.51-32.58 160.29-32.98 160.06-33.39 160.02-33.98L160.02-33.98Q160.88-34.56 162.68-34.56L162.68-34.56Q164.16-34.56 165.58-34.16 167-33.75 167.72-33.03L167.72-33.03Q167.72-32.17 167.4-31.52 167.09-30.87 167-30.51L167-30.51 166.59-27.4 166.32-25.7 166.68-25.7Q167.22-26.05 168.84-26.68 170.46-27.31 171.13-27.36L171.13-27.36Q172.98-25.88 174.17-24.73 175.37-23.58 175.37-22.45L175.37-22.45Q175.37-22 175.14-21.73L175.14-21.73Q174.96-21.46 174.38-21.31 173.79-21.15 173.12-21.15L173.12-21.15Q172.57-21.15 172.31-21.2L172.31-21.2Q171.59-21.38 170.19-21.38L170.19-21.38Q168.57-21.38 165.51-21.02L165.51-21.02Q165.42-20.56 165.33-19.06 165.24-17.55 165.24-17.28L165.24-17.28Q166.05-17.55 167.04-18.18L167.04-18.18Q168.07-18.81 168.8-19.1 169.51-19.39 170.37-19.44L170.37-19.44 171.18-18.68Q172.31-17.55 172.87-16.67 173.43-15.79 173.47-14.45L173.47-14.45Q172.57-13.54 171.88-12.38 171.18-11.21 170.32-9.36L170.32-9.36Q169.25-7.15 168.41-5.8 167.58-4.46 166.37-3.51L166.37-3.51 166.63-3.01ZM152.73-14.67L152.73-14.67Q152.73-14.49 152.1-13.81 151.47-13.14 151.34-13L151.34-13Q150.16-11.79 149.47-10.96 148.77-10.13 148.46-9.45L148.46-9.45Q148.28-9.09 148.37-7.15L148.37-7.15 148.37-4.86Q148.37 0.32 148.05 2.16L148.05 2.16Q147.82 3.33 147.15 4.77 146.47 6.21 145.66 6.57L145.66 6.57Q145.53 6.66 144.61 5.94 143.69 5.22 142.38 3.71 141.07 2.21 139.72-0.04L139.72-0.04Q142.16 0.27 143.24 0.27L143.24 0.27Q143.73 0.27 143.82 0.18L143.82 0.18Q143.87-0.63 143.91-1.87 143.96-3.1 143.96-3.78L143.96-3.78 144.04-6.48 143.73-6.48Q143.59-6.3 143.06-5.58 142.51-4.86 141.93-4.32 141.34-3.78 140.9-3.69L140.9-3.69Q140.58-3.55 140.22-3.55L140.22-3.55Q138.96-3.55 138.28-5 137.61-6.43 137.61-8.28L137.61-8.28Q137.61-9.09 137.75-9.67L137.75-9.67 138.15-9.67Q138.47-9.4 138.76-9.07 139.05-8.73 139.41-8.41L139.41-8.41Q139.77-8.64 142.06-9.76L142.06-9.76 144.04-10.8Q143.96-18.04 143.91-18.36L143.91-18.36Q142.97-18.31 142.4-18.2 141.84-18.09 141.16-17.86L141.16-17.86Q140.53-17.64 139.81-17.46L139.81-17.46 139.28-18.18Q138.47-19.35 138.04-20.23 137.61-21.11 137.34-22.68L137.34-22.68 138.1-22.68Q139-21.38 141.25-21.38L141.25-21.38Q142.56-21.38 143.73-21.73L143.73-21.73Q143.87-22.23 143.87-24.79L143.87-24.79Q143.87-26.86 143.78-29 143.69-31.14 143.59-31.41L143.59-31.41Q143.5-31.63 142.92-32.22L142.92-32.22Q142.2-32.76 142.06-33.39L142.06-33.39Q142.38-33.62 143.5-34 144.63-34.38 145.84-34.38L145.84-34.38Q148.59-34.38 149.99-32.27L149.99-32.27Q149.94-31.23 149.31-29.43L149.31-29.43Q149.13-28.98 148.86-27.99L148.86-27.99Q148.86-27.09 148.95-25.11L148.95-25.11 149-23.49Q150.03-24.07 151.2-24.07L151.2-24.07Q151.56-24.07 151.69-24.03L151.69-24.03Q152.91-22.41 153.18-20.52L153.18-20.52Q152.59-20.2 151.04-19.96 149.49-19.71 148.86-19.71L148.86-19.71Q148.86-19.13 148.81-18.54 148.77-17.95 148.72-17.5L148.72-17.5Q148.68-16.83 148.63-16 148.59-15.16 148.59-14.26L148.59-14.26Q148.59-13.37 148.72-13.28L148.72-13.28Q149.22-13.72 150.97-14.4 152.73-15.07 152.73-14.67L152.73-14.67ZM163.4-32.09L163.4-32.09Q163.49-32.27 163.53-32.53L163.53-32.53Q163.44-32.63 163.31-32.63L163.31-32.63 163.31-31.86 163.4-31.86 163.4-32.09ZM145.75-32.09L145.75-32.09Q145.75-32.09 145.84-32.02 145.94-31.95 146.03-32.09L146.03-32.09 145.75-32.09ZM168.88-16.16L168.88-16.16Q169.25-15.66 169.31-15.46 169.38-15.25 169.34-14.58L169.34-14.58Q169.6-14.63 169.74-14.76L169.74-14.76Q170.19-15.07 170.28-16.06L170.28-16.06Q170.01-16.11 169.72-16.29 169.43-16.47 169.2-16.56L169.2-16.56 168.88-16.16ZM163.22-6.97L163.22-6.97Q164.25-8.37 164.63-9.2 165.01-10.04 166.09-12.96L166.09-12.96Q166.14-13.05 166.52-13.88 166.91-14.71 166.72-15.16L166.72-15.16 166.09-15.16Q165.51-14.8 163.62-14.26L163.62-14.26Q161.73-13.77 160.72-13.3 159.7-12.82 159.62-11.97L159.62-11.97Q160.65-11.21 162.54-8.01L162.54-8.01 163.22-6.97ZM161.82-4.72L161.82-4.72Q161.69-4.86 161.55-4.86L161.55-4.86Q161.64-4.59 161.73-4.46L161.73-4.46 161.82-4.46 161.82-4.72ZM174.1 3.73L174.1 3.73Q174.47 3.65 174.53 3.6 174.6 3.55 174.69 3.24L174.69 3.24Q174.24 3.1 173.7 2.97 173.16 2.83 172.57 2.83L172.57 2.83Q172.66 3.1 172.94 3.65L172.94 3.65Q173.34 3.65 173.66 3.69 173.97 3.73 174.1 3.73L174.1 3.73ZM145.22 3.51L145.22 3.51Q145.17 3.33 144.94 3.33L144.94 3.33 145.03 3.69 145.22 3.69 145.22 3.51ZM163.53-31.23L163.53-31.54 163.4-31.54 163.4-31.23 163.53-31.23ZM157.95-13.09L157.86-13.23 157.28-13.23 157.28-12.91 157.95-12.91 157.95-13.09Z" transform="translate(-1.6200000047683716, 35.099998474121094)"></path></g> </g></g> <g fill-rule="" class="tp-slogan" transform="translate(5,45.97999954223633)" fill="white"><rect x="0" height="1" y="3.1700000762939453" width="27.895000457763672"></rect> <rect height="1" y="3.1700000762939453" width="27.895000457763672" x="138.68500137329102"></rect> <g transform="translate(30.895000457763672,0)"><g transform="scale(1)"><path d="M4.40 0L0.71 0L0.71-1.31L4.07-1.31Q4.87-1.31 5.14-1.46L5.14-1.46Q5.52-1.69 5.52-2.16L5.52-2.16Q5.52-2.69 5.07-2.94L5.07-2.94Q4.82-3.08 4.26-3.08L4.26-3.08L2.89-3.08Q1.65-3.08 1.10-3.53L1.10-3.53Q0.76-3.82 0.57-4.25Q0.37-4.67 0.37-5.17L0.37-5.17Q0.37-5.94 0.82-6.58L0.82-6.58Q1.26-7.19 2.23-7.30L2.23-7.30Q2.56-7.34 3.21-7.34L3.21-7.34L6.85-7.34L6.85-6.03L3.56-6.03Q2.83-6.02 2.58-5.96L2.58-5.96Q2.09-5.84 2.09-5.21L2.09-5.21Q2.09-4.69 2.51-4.51L2.51-4.51Q2.78-4.38 3.43-4.38L3.43-4.38L4.61-4.38Q5.51-4.38 5.95-4.22L5.95-4.22Q6.73-3.96 7.03-3.30L7.03-3.30Q7.26-2.77 7.26-2.17L7.26-2.17Q7.26-1.50 6.95-0.97L6.95-0.97Q6.52-0.22 5.67-0.07L5.67-0.07Q5.25 0 4.40 0L4.40 0ZM10.02 0L10.02-6.03L7.69-6.03L7.69-7.34L14.01-7.34L14.01-6.03L11.58-6.03L11.58 0L10.02 0ZM15.93 0L14.10 0L17.14-7.34L18.93-7.34L21.97 0L20.14 0L19.43-1.69L16.64-1.69L15.93 0ZM19.09-3.00L18.04-5.57L16.99-3.00L19.09-3.00ZM25.57-2.78L24.32-2.78L24.32 0L22.76 0L22.76-7.34L26.34-7.34Q27.88-7.34 28.49-6.94L28.49-6.94Q28.91-6.68 29.13-6.24Q29.36-5.81 29.36-5.29L29.36-5.29Q29.36-4.25 28.83-3.67L28.83-3.67Q28.50-3.33 27.96-3.16L27.96-3.16Q28.39-3.00 28.61-2.83Q28.83-2.66 29.01-2.33L29.01-2.33Q29.14-2.07 29.20-1.83Q29.26-1.58 29.29-1.11L29.29-1.11Q29.36-0.32 29.47 0L29.47 0L27.72 0Q27.64-0.25 27.55-1.04L27.55-1.04Q27.50-1.68 27.33-2.02Q27.16-2.36 26.82-2.56L26.82-2.56Q26.39-2.79 25.57-2.78L25.57-2.78ZM24.32-6.03L24.32-4.09L26.51-4.09Q27.06-4.09 27.29-4.26L27.29-4.26Q27.64-4.50 27.64-5.10L27.64-5.10Q27.64-5.77 27.11-5.96L27.11-5.96Q26.93-6.03 26.51-6.03L26.51-6.03L24.32-6.03ZM30.52-3.21L30.52-7.34L32.08-7.34L32.08-3.21Q32.11-2.43 32.14-2.18L32.14-2.18Q32.22-1.67 32.63-1.49Q33.03-1.31 34.06-1.31L34.06-1.31L35.55-1.31L35.55 0L33.89 0Q32.71 0 32.19-0.13L32.19-0.13Q30.98-0.48 30.65-1.67L30.65-1.67Q30.52-2.13 30.52-3.21L30.52-3.21ZM38.03 0L36.46 0L36.46-7.34L38.03-7.34L38.03 0ZM42.21-3.05L42.21-4.36L45.80-4.36L45.80 0L42.53 0Q41.68 0 41.18-0.13Q40.68-0.25 40.27-0.57L40.27-0.57Q39.12-1.46 39.12-3.64L39.12-3.64Q39.12-5.06 39.67-6.01L39.67-6.01Q40.07-6.70 40.78-7.02Q41.48-7.34 42.60-7.34L42.60-7.34L45.80-7.34L45.80-6.03L42.78-6.03Q41.80-6.03 41.36-5.60L41.36-5.60Q40.83-5.09 40.83-3.78L40.83-3.78Q40.83-3.11 40.97-2.57Q41.11-2.03 41.35-1.77L41.35-1.77Q41.56-1.53 41.93-1.42Q42.29-1.31 42.83-1.31L42.83-1.31L44.25-1.31L44.25-3.05L42.21-3.05ZM51.51-7.34L53.06-7.34L53.06 0L51.51 0L51.51-3.04L48.67-3.04L48.67 0L47.11 0L47.11-7.34L48.67-7.34L48.67-4.34L51.51-4.34L51.51-7.34ZM56.19 0L56.19-6.03L53.86-6.03L53.86-7.34L60.18-7.34L60.18-6.03L57.75-6.03L57.75 0L56.19 0ZM66.48 0L66.48-7.34L69.60-7.34Q70.76-7.34 71.40-7.11L71.40-7.11Q72.58-6.68 72.97-5.53L72.97-5.53Q73.27-4.65 73.27-3.65L73.27-3.65Q73.27-2.66 72.98-1.78L72.98-1.78Q72.70-0.88 72.04-0.45L72.04-0.45Q71.62-0.19 71.12-0.09Q70.62 0 69.60 0L69.60 0L66.48 0ZM69.60-6.03L68.05-6.03L68.05-1.31L69.60-1.31Q70.62-1.31 71.02-1.76L71.02-1.76Q71.26-2.05 71.41-2.56Q71.55-3.08 71.55-3.66L71.55-3.66Q71.55-4.31 71.38-4.85Q71.20-5.39 70.92-5.65L70.92-5.65Q70.50-6.03 69.60-6.03L69.60-6.03ZM77.18-2.78L75.92-2.78L75.92 0L74.36 0L74.36-7.34L77.95-7.34Q79.49-7.34 80.09-6.94L80.09-6.94Q80.51-6.68 80.73-6.24Q80.96-5.81 80.96-5.29L80.96-5.29Q80.96-4.25 80.43-3.67L80.43-3.67Q80.10-3.33 79.56-3.16L79.56-3.16Q79.99-3.00 80.21-2.83Q80.43-2.66 80.61-2.33L80.61-2.33Q80.74-2.07 80.80-1.83Q80.86-1.58 80.89-1.11L80.89-1.11Q80.96-0.32 81.07 0L81.07 0L79.32 0Q79.24-0.25 79.16-1.04L79.16-1.04Q79.10-1.68 78.93-2.02Q78.76-2.36 78.42-2.56L78.42-2.56Q77.99-2.79 77.18-2.78L77.18-2.78ZM75.92-6.03L75.92-4.09L78.11-4.09Q78.66-4.09 78.89-4.26L78.89-4.26Q79.24-4.50 79.24-5.10L79.24-5.10Q79.24-5.77 78.72-5.96L78.72-5.96Q78.53-6.03 78.11-6.03L78.11-6.03L75.92-6.03ZM85.08-7.34L87.71-7.34L87.71-6.03L85.68-6.03Q84.89-6.03 84.52-5.92Q84.16-5.81 83.92-5.49L83.92-5.49Q83.75-5.27 83.69-5.05Q83.63-4.83 83.59-4.30L83.59-4.30L87.71-4.30L87.71-2.99L83.59-2.99Q83.68-2.05 84.15-1.68Q84.62-1.31 85.76-1.31L85.76-1.31L87.71-1.31L87.71 0L85.68 0Q84.85 0 84.23-0.10L84.23-0.10Q83.24-0.26 82.65-0.97L82.65-0.97Q81.82-1.98 81.82-3.71L81.82-3.71Q81.82-5.62 82.99-6.69L82.99-6.69Q83.40-7.05 83.86-7.19Q84.31-7.34 85.08-7.34L85.08-7.34ZM90.06 0L88.23 0L91.27-7.34L93.06-7.34L96.10 0L94.27 0L93.55-1.69L90.77-1.69L90.06 0ZM93.21-3.00L92.17-5.57L91.12-3.00L93.21-3.00ZM96.85-7.34L99.13-7.34L100.96-1.61L102.88-7.34L105.16-7.34L105.16 0L103.67 0L103.67-5.50L101.76 0L100.15 0L98.34-5.50L98.34 0L96.85 0L96.85-7.34Z" transform="translate(-0.374, 7.337)"></path></g></g></g></g></mask><defs v-gra="od"></defs></g></svg>